<?xml version="1.0" standalone="no"?>
<!DOCTYPE svg PUBLIC "-//W3C//DTD SVG 20010904//EN"
 "http://www.w3.org/TR/2001/REC-SVG-20010904/DTD/svg10.dtd">
<svg version="1.0" xmlns="http://www.w3.org/2000/svg"
 width="1280.000000pt" height="883.000000pt" viewBox="0 0 1280.000000 883.000000"
 preserveAspectRatio="xMidYMid meet">

<g transform="translate(0.000000,883.000000) scale(0.100000,-0.100000)"
fill="#000000" stroke="none">
<path d="M3355 6720 c-552 -47 -1038 -345 -1348 -828 -116 -180 -201 -403
-243 -637 -25 -142 -25 -454 0 -585 88 -463 308 -828 670 -1109 212 -165 449
-270 756 -336 118 -25 419 -31 556 -11 203 30 400 92 569 179 511 263 876 785
944 1352 23 187 8 462 -34 628 -112 443 -369 808 -750 1064 -75 50 -258 144
-347 177 -140 53 -314 91 -478 106 -126 11 -162 11 -295 0z m-158 -246 c-3 -3
-12 -4 -19 -1 -8 3 -5 6 6 6 11 1 17 -2 13 -5z m83 -14 c0 -5 -2 -10 -4 -10
-3 0 -8 5 -11 10 -3 6 -1 10 4 10 6 0 11 -4 11 -10z m-343 -66 c-3 -3 -12 -4
-19 -1 -8 3 -5 6 6 6 11 1 17 -2 13 -5z m-263 -139 c-4 -8 -13 -15 -22 -15
-13 0 -12 3 4 15 24 18 25 18 18 0z m-54 -29 c0 -2 -8 -10 -17 -17 -16 -13
-17 -12 -4 4 13 16 21 21 21 13z m1805 -16 c3 -5 2 -10 -4 -10 -5 0 -13 5 -16
10 -3 6 -2 10 4 10 5 0 13 -4 16 -10z m51 -47 c-6 -6 -36 9 -36 18 0 5 9 4 20
-3 10 -7 18 -14 16 -15z m34 -23 c0 -5 -2 -10 -4 -10 -3 0 -8 5 -11 10 -3 6
-1 10 4 10 6 0 11 -4 11 -10z m-1063 -36 c-3 -3 -12 -4 -19 -1 -8 3 -5 6 6 6
11 1 17 -2 13 -5z m390 -40 c-3 -3 -12 -4 -19 -1 -8 3 -5 6 6 6 11 1 17 -2 13
-5z m903 -159 c7 -9 8 -15 2 -15 -5 0 -12 7 -16 15 -3 8 -4 15 -2 15 2 0 9 -7
16 -15z m-2450 -5 c0 -5 -5 -10 -11 -10 -5 0 -7 5 -4 10 3 6 8 10 11 10 2 0 4
-4 4 -10z m1425 -30 c166 -36 368 -156 484 -286 61 -68 126 -171 162 -254 31
-73 69 -208 69 -247 l0 -23 -926 0 -927 0 7 53 c11 83 69 240 122 329 60 100
194 239 289 300 91 58 200 105 300 128 113 26 301 26 420 0z m525 -22 c0 -6
-6 -5 -15 2 -8 7 -15 14 -15 16 0 2 7 1 15 -2 8 -4 15 -11 15 -16z m114 -104
c5 -14 4 -15 -9 -4 -17 14 -19 20 -6 20 5 0 12 -7 15 -16z m-2201 -39 c-3 -9
-8 -14 -10 -11 -3 3 -2 9 2 15 9 16 15 13 8 -4z m-20 -40 c-3 -9 -8 -14 -10
-11 -3 3 -2 9 2 15 9 16 15 13 8 -4z m2767 -30 c0 -5 -5 -3 -10 5 -5 8 -10 20
-10 25 0 6 5 3 10 -5 5 -8 10 -19 10 -25z m37 -107 c-3 -7 -5 -2 -5 12 0 14 2
19 5 13 2 -7 2 -19 0 -25z m-407 -28 c0 -5 -2 -10 -4 -10 -3 0 -8 5 -11 10 -3
6 -1 10 4 10 6 0 11 -4 11 -10z m447 -62 c-3 -8 -6 -5 -6 6 -1 11 2 17 5 13 3
-3 4 -12 1 -19z m30 -120 c-3 -7 -5 -2 -5 12 0 14 2 19 5 13 2 -7 2 -19 0 -25z
m-380 -85 c-3 -10 -5 -4 -5 12 0 17 2 24 5 18 2 -7 2 -21 0 -30z m-2660 -155
c-3 -8 -6 -5 -6 6 -1 11 2 17 5 13 3 -3 4 -12 1 -19z m3093 -238 c0 -48 -31
-223 -54 -301 -72 -249 -196 -465 -371 -648 -248 -259 -573 -425 -921 -472
-143 -19 -426 -6 -554 24 -640 153 -1111 671 -1199 1320 -6 43 -11 83 -11 88
0 5 606 9 1555 9 1550 0 1555 0 1555 -20z"/>
<path d="M5101 2659 c-47 -15 -75 -33 -111 -68 -55 -55 -70 -95 -70 -187 0
-144 81 -227 293 -300 134 -46 168 -68 186 -120 45 -130 -141 -201 -339 -130
-41 15 -81 28 -89 29 -8 1 -20 -19 -32 -53 -33 -100 -33 -96 14 -115 88 -36
135 -46 232 -52 163 -9 287 33 357 120 47 60 53 81 53 177 -1 57 -6 85 -22
116 -42 79 -129 139 -268 184 -133 42 -195 93 -195 157 0 43 45 89 97 99 57
11 184 -2 241 -25 29 -12 54 -21 56 -21 5 0 46 134 46 148 0 6 -28 20 -62 32
-95 33 -299 38 -387 9z"/>
<path d="M9980 2674 c-168 -33 -297 -151 -349 -318 -27 -88 -30 -288 -5 -374
54 -187 184 -305 351 -319 100 -8 155 9 215 67 51 49 50 49 63 -17 l6 -32 81
-3 c44 -2 82 -1 84 1 2 2 4 130 4 283 l0 278 -190 0 -190 0 0 -80 0 -80 95 0
95 0 0 -53 c0 -120 -79 -203 -191 -200 -99 2 -166 52 -218 163 -22 48 -25 68
-26 165 0 179 45 274 159 332 78 41 195 44 300 9 43 -15 80 -25 81 -24 12 15
45 142 39 148 -5 4 -36 18 -69 30 -48 18 -85 23 -185 26 -69 1 -136 0 -150 -2z"/>
<path d="M5650 2580 l0 -79 143 -3 142 -3 0 -408 0 -407 98 0 97 0 0 410 0
410 140 0 140 0 0 80 0 80 -380 0 -380 0 0 -80z"/>
<path d="M6695 2648 c-17 -51 -139 -390 -150 -418 -29 -74 -195 -538 -195
-544 0 -4 46 -5 102 -4 l101 3 35 103 34 102 178 0 178 0 34 -102 35 -103 106
-3 106 -3 -13 33 c-13 31 -46 121 -259 708 l-85 235 -101 3 c-76 2 -102 -1
-106 -10z m161 -391 c28 -94 53 -179 55 -187 3 -13 -14 -15 -111 -15 -97 0
-114 2 -111 15 21 79 107 360 111 360 3 0 28 -78 56 -173z"/>
<path d="M7360 2170 l0 -490 94 0 c82 0 95 2 100 18 2 9 4 230 4 490 l0 472
-99 0 -99 0 0 -490z"/>
<path d="M7833 2523 c-67 -76 -147 -165 -177 -198 l-55 -60 -1 -68 0 -68 145
-182 c80 -100 160 -201 177 -224 l33 -41 108 -4 c100 -3 135 4 110 21 -5 3
-98 117 -207 254 l-197 247 193 218 c106 119 196 219 200 220 5 2 8 8 8 13 0
5 -48 9 -108 9 l-107 0 -122 -137z"/>
<path d="M8268 2170 l-3 -490 98 0 97 0 0 490 0 490 -95 0 -95 0 -2 -490z"/>
<path d="M8658 2170 l-3 -490 100 0 100 0 -2 87 c-2 49 -4 208 -5 355 l-3 267
25 -54 c14 -30 106 -190 205 -355 l180 -299 103 -1 103 0 -1 490 -2 490 -99 0
-99 0 1 -312 c0 -172 4 -335 8 -361 9 -55 1 -51 -23 12 -10 25 -25 56 -35 70
-16 23 -64 105 -181 311 -20 36 -65 113 -99 173 l-63 107 -104 0 -104 0 -2
-490z"/>
<path d="M1890 2493 c-12 -54 -28 -101 -34 -105 -6 -4 -30 -8 -53 -8 l-43 0 0
-64 0 -65 50 -3 49 -3 4 -220 c3 -201 5 -224 24 -260 11 -22 30 -48 41 -58 50
-46 166 -60 259 -32 70 21 76 30 56 96 -8 30 -17 60 -19 67 -3 10 -10 9 -34
-3 -18 -9 -49 -15 -73 -13 -63 5 -67 19 -64 238 l2 185 98 5 c53 3 97 8 97 13
0 4 0 32 0 62 l0 54 -97 3 -98 3 -3 103 -3 102 -68 0 -69 0 -22 -97z"/>
<path d="M4485 2576 c-2 -6 -11 -49 -20 -96 -9 -46 -19 -88 -21 -92 -3 -4 -30
-8 -60 -8 l-54 0 0 -64 0 -65 53 -3 52 -3 5 -225 c5 -214 6 -227 29 -266 13
-24 41 -52 65 -65 58 -34 200 -34 262 -1 l42 21 -20 70 -21 70 -28 -14 c-15
-8 -46 -15 -68 -15 -67 0 -71 13 -71 237 l0 193 100 0 101 0 -3 66 -3 67 -97
-2 -97 -2 -3 103 -3 103 -68 1 c-42 1 -70 -3 -72 -10z"/>
<path d="M2683 2399 c-30 -9 -64 -38 -97 -84 -12 -16 -15 -17 -19 -5 -17 60
-23 75 -30 73 -4 -2 -41 -3 -82 -3 l-75 0 0 -350 0 -350 95 0 95 0 0 231 c0
139 4 238 10 250 6 10 29 28 52 40 41 21 95 22 154 4 18 -6 22 1 37 63 25 101
23 107 -23 126 -45 18 -69 19 -117 5z"/>
<path d="M3893 2386 c-104 -34 -152 -86 -160 -175 -10 -113 48 -180 201 -231
123 -41 151 -64 147 -122 -3 -48 -124 -62 -233 -28 -80 25 -85 25 -92 -2 -3
-13 -12 -44 -20 -70 l-15 -47 67 -23 c55 -18 89 -22 187 -23 112 0 124 2 178
29 44 21 67 40 89 75 27 42 29 52 26 118 -3 62 -7 76 -34 110 -33 41 -126 93
-210 118 -95 27 -133 84 -82 119 31 22 132 20 204 -3 32 -11 62 -17 65 -13 13
14 41 113 36 126 -16 41 -266 71 -354 42z"/>
<path d="M2940 2120 c0 -211 3 -268 16 -307 54 -162 270 -205 402 -80 17 17
32 29 33 26 14 -83 9 -79 104 -79 l85 0 0 350 0 350 -95 0 -95 0 0 -238 0
-239 -27 -24 c-54 -47 -77 -59 -121 -59 -104 0 -112 24 -112 325 l0 235 -95 0
-95 0 0 -260z"/>
</g>
</svg>
