
<?xml version="1.0" standalone="no"?>
<!DOCTYPE svg PUBLIC "-//W3C//DTD SVG 20010904//EN"
 "http://www.w3.org/TR/2001/REC-SVG-20010904/DTD/svg10.dtd">
<svg version="1.0" xmlns="http://www.w3.org/2000/svg"
 width="640.000000pt" height="640.000000pt" viewBox="0 0 640.000000 640.000000"
 preserveAspectRatio="xMidYMid meet">

<g transform="translate(0.000000,640.000000) scale(0.100000,-0.100000)"
fill="#000000" stroke="none">
<path d="M2905 6385 c-909 -84 -1746 -558 -2286 -1295 -448 -611 -667 -1377
-609 -2131 59 -761 381 -1467 914 -2005 168 -169 344 -314 516 -425 140 -91
181 -115 318 -184 1236 -620 2721 -385 3693 585 137 136 186 193 298 339 267
350 459 755 562 1190 294 1237 -168 2523 -1181 3290 -185 140 -298 210 -508
315 -528 264 -1124 375 -1717 321z m790 -559 c370 -59 708 -200 1030 -431 176
-126 392 -334 540 -520 282 -355 494 -809 585 -1251 89 -429 66 -879 -63
-1244 -256 -728 -897 -1185 -1817 -1294 -187 -22 -240 -26 -240 -15 0 5 5 9
11 9 22 0 228 85 354 145 547 263 909 664 1030 1141 140 550 -57 1185 -520
1673 -74 78 -240 218 -315 267 -25 16 -47 31 -50 35 -3 3 -50 31 -105 63 -162
92 -363 164 -565 203 -137 26 -523 26 -665 -1 -642 -119 -1186 -537 -1489
-1143 -144 -288 -226 -565 -278 -943 -9 -64 -13 -209 -13 -445 1 -375 11 -494
70 -803 41 -214 39 -200 20 -177 -24 29 -79 148 -113 246 -35 98 -74 266 -97
419 -22 141 -31 555 -16 725 89 1010 525 1808 1212 2217 502 300 1152 378
1884 228 188 -38 494 -124 643 -179 45 -17 82 -27 82 -22 0 5 -48 55 -108 112
-335 324 -693 530 -1103 634 -154 39 -282 56 -479 62 -371 11 -738 -63 -1150
-232 -351 -145 -729 -373 -1050 -633 -48 -40 -46 -36 20 29 79 78 219 205 267
241 15 12 30 25 33 28 17 18 164 132 275 212 508 369 1025 586 1555 654 137
17 488 12 625 -10z m-1201 -2586 l26 -10 0 -534 0 -535 -24 -28 c-22 -25 -31
-28 -103 -31 -94 -5 -139 11 -175 59 -41 54 -379 702 -409 784 -14 36 -15 0
-11 -386 l5 -426 -24 -16 c-27 -19 -122 -23 -163 -7 l-26 10 0 539 0 540 22
21 c19 18 35 20 132 20 167 0 134 37 372 -415 78 -148 170 -335 178 -362 4
-13 10 -23 14 -23 4 0 6 170 4 377 -2 208 0 388 3 400 3 12 15 24 28 26 43 8
126 7 151 -3z m1604 -6 c22 -15 22 -19 22 -230 l0 -214 208 2 207 3 5 220 5
219 25 7 c49 14 155 10 178 -7 l22 -15 0 -542 c0 -300 -4 -548 -9 -556 -12
-18 -155 -27 -193 -12 l-28 11 0 240 0 240 -210 0 -210 0 0 -234 c0 -278 5
-266 -118 -266 -124 0 -112 -64 -112 576 l0 555 23 9 c38 15 160 12 185 -6z
m-467 -21 c12 -32 4 -130 -13 -150 -8 -10 -48 -13 -154 -13 l-144 0 0 -465 0
-465 -26 -10 c-14 -6 -54 -10 -89 -10 -35 0 -75 4 -89 10 l-26 10 0 465 0 465
-144 0 c-118 0 -146 3 -157 16 -17 20 -23 112 -10 147 l11 27 415 0 415 0 11
-27z"/>
</g>
</svg>
