<svg id="svg" version="1.1" xmlns="http://www.w3.org/2000/svg" xmlns:xlink="http://www.w3.org/1999/xlink" width="400" height="400" viewBox="0, 0, 400,400"><g id="svgg"><path id="path0" d="M191.891 23.629 C 190.815 24.516,190.400 25.171,190.400 25.982 C 190.400 26.770,190.161 27.169,189.600 27.316 C 188.855 27.511,188.800 27.862,188.800 32.400 C 188.800 36.938,188.855 37.289,189.600 37.484 C 190.247 37.653,190.400 38.030,190.400 39.447 C 190.400 40.933,190.278 41.200,189.600 41.200 C 188.920 41.200,188.800 41.467,188.800 42.973 C 188.800 44.462,188.656 44.791,187.900 45.027 C 186.745 45.387,186.414 45.914,186.406 47.404 C 186.402 48.170,186.109 48.789,185.600 49.107 C 185.015 49.472,184.800 50.040,184.800 51.216 C 184.800 52.304,184.598 52.903,184.177 53.064 C 183.834 53.196,183.642 53.532,183.749 53.812 C 183.857 54.092,183.597 54.412,183.172 54.523 C 182.630 54.665,182.400 55.076,182.400 55.901 C 182.400 56.568,182.054 57.389,181.600 57.800 C 181.040 58.307,180.800 59.032,180.800 60.219 C 180.800 61.681,180.666 61.947,179.824 62.158 C 179.030 62.358,178.798 62.738,178.579 64.202 C 178.412 65.313,178.103 66.000,177.768 66.000 C 177.424 66.000,177.135 66.700,176.972 67.923 C 176.782 69.361,176.501 69.941,175.859 70.223 C 175.215 70.506,174.970 71.015,174.879 72.259 C 174.788 73.507,174.565 73.968,173.979 74.121 C 173.334 74.290,173.200 74.680,173.200 76.386 C 173.200 77.520,173.047 78.352,172.859 78.236 C 172.671 78.120,172.176 78.284,171.759 78.600 C 171.238 78.995,169.907 79.179,167.509 79.187 C 164.234 79.199,163.978 79.262,163.363 80.200 C 162.633 81.315,162.000 81.507,162.000 80.614 C 162.000 79.839,160.747 79.200,159.226 79.200 C 158.449 79.200,158.000 78.997,158.000 78.647 C 158.000 78.067,156.827 77.615,155.300 77.605 C 154.369 77.600,152.688 76.246,153.100 75.833 C 153.228 75.705,152.590 75.600,151.681 75.600 C 150.438 75.600,149.922 75.402,149.600 74.800 C 149.260 74.165,148.762 74.000,147.186 74.000 C 145.687 74.000,145.200 73.853,145.200 73.400 C 145.200 73.070,144.949 72.800,144.643 72.800 C 144.336 72.800,143.982 72.530,143.855 72.200 C 143.698 71.789,143.055 71.600,141.813 71.600 C 140.267 71.600,140.000 71.482,140.000 70.800 C 140.000 70.121,139.733 70.000,138.243 70.000 C 136.693 70.000,136.457 69.880,136.230 68.977 C 136.025 68.160,135.805 68.008,135.137 68.220 C 134.575 68.398,134.390 68.340,134.574 68.043 C 134.749 67.759,134.442 67.600,133.720 67.600 C 133.026 67.600,132.400 67.293,132.093 66.800 C 131.707 66.182,131.160 66.000,129.686 66.000 C 128.052 66.000,127.622 65.822,126.686 64.755 C 125.808 63.755,125.356 63.545,124.389 63.687 C 123.678 63.791,123.004 63.646,122.743 63.332 C 122.501 63.039,122.459 62.797,122.651 62.794 C 123.612 62.777,121.631 62.011,120.600 62.000 C 119.551 61.989,117.595 61.222,118.576 61.206 C 119.497 61.191,117.284 60.024,116.314 60.013 C 115.647 60.005,115.063 59.692,114.800 59.200 C 114.483 58.608,113.962 58.400,112.799 58.400 L 111.226 58.400 111.113 53.905 C 111.001 49.441,110.992 49.405,109.900 48.883 C 109.143 48.521,108.800 48.051,108.800 47.378 C 108.800 46.687,108.579 46.400,108.047 46.400 C 107.630 46.400,107.200 46.043,107.084 45.600 C 106.962 45.132,106.538 44.800,106.065 44.800 C 105.530 44.800,105.212 44.495,105.128 43.900 C 105.041 43.286,104.683 42.959,104.000 42.872 C 103.450 42.801,102.768 42.441,102.484 42.072 C 101.599 40.921,88.224 40.833,87.614 41.975 C 87.371 42.429,86.800 42.800,86.346 42.800 C 85.892 42.800,85.018 43.295,84.403 43.900 C 83.788 44.505,82.711 45.431,82.011 45.957 C 81.159 46.596,80.800 47.155,80.927 47.642 C 81.032 48.043,80.866 48.579,80.559 48.834 C 80.251 49.089,80.000 49.150,80.000 48.969 C 80.000 47.572,79.226 49.851,79.153 51.461 C 79.085 52.982,78.922 53.468,78.530 53.318 C 78.042 53.131,77.841 53.691,77.892 55.096 C 77.902 55.368,77.779 55.511,77.619 55.412 C 77.153 55.124,77.179 58.013,77.650 58.894 C 77.961 59.474,77.958 59.621,77.640 59.425 C 76.808 58.911,77.200 60.339,78.225 61.557 C 78.942 62.409,79.257 63.262,79.272 64.398 C 79.286 65.411,79.540 66.205,79.947 66.510 C 80.306 66.780,80.849 67.482,81.153 68.072 C 81.945 69.610,85.611 72.490,86.484 72.262 C 86.915 72.149,87.200 72.293,87.200 72.623 C 87.200 73.329,88.686 74.129,89.452 73.835 C 89.783 73.708,89.935 73.782,89.797 74.005 C 89.157 75.041,100.616 74.462,101.762 73.400 C 102.356 72.850,103.166 72.400,103.563 72.400 C 103.959 72.400,104.715 71.905,105.242 71.300 C 106.183 70.219,108.000 69.629,108.000 70.405 C 108.000 70.622,108.500 70.800,109.111 70.800 C 109.745 70.800,110.531 71.161,110.942 71.641 C 111.418 72.197,111.981 72.420,112.605 72.301 C 113.683 72.095,114.023 72.278,114.641 73.400 C 114.937 73.939,115.584 74.242,116.623 74.329 C 117.584 74.409,118.369 74.749,118.705 75.229 C 119.079 75.763,119.718 76.000,120.780 76.000 C 121.739 76.000,122.396 76.214,122.533 76.570 C 122.806 77.282,125.287 78.487,126.268 78.384 C 127.583 78.247,127.904 78.388,128.116 79.200 C 128.278 79.819,128.662 80.000,129.816 80.000 C 130.932 80.000,131.535 80.266,132.215 81.057 C 132.839 81.783,133.379 82.046,133.942 81.899 C 134.393 81.781,134.818 81.854,134.887 82.060 C 134.956 82.267,135.402 82.465,135.878 82.501 C 136.355 82.537,136.656 82.709,136.549 82.883 C 136.441 83.057,136.644 83.200,137.000 83.200 C 137.356 83.200,137.536 83.380,137.400 83.600 C 137.253 83.838,137.723 84.000,138.557 84.000 C 139.471 84.000,140.102 84.244,140.368 84.700 C 140.592 85.085,140.781 85.243,140.788 85.051 C 140.795 84.859,141.025 84.879,141.300 85.096 C 141.575 85.312,142.340 85.619,143.000 85.776 C 143.660 85.933,144.773 86.498,145.473 87.031 C 146.270 87.637,147.281 88.000,148.173 88.000 C 149.126 88.000,149.600 88.185,149.600 88.557 C 149.600 89.255,150.471 89.600,152.233 89.600 L 153.600 89.600 153.600 97.210 L 153.600 104.820 152.600 105.200 C 152.050 105.409,151.600 105.834,151.600 106.143 C 151.600 106.453,151.217 106.807,150.748 106.929 C 150.201 107.073,149.977 107.364,150.124 107.745 C 150.278 108.148,149.963 108.474,149.140 108.761 C 148.474 108.993,147.839 109.530,147.728 109.954 C 147.617 110.379,147.183 110.816,146.763 110.926 C 146.343 111.035,146.000 111.369,146.000 111.668 C 146.000 111.966,145.610 112.388,145.133 112.605 C 144.656 112.822,144.116 113.315,143.933 113.700 C 143.750 114.085,143.453 114.703,143.273 115.073 C 143.094 115.444,142.644 115.894,142.273 116.073 C 141.903 116.253,141.285 116.553,140.900 116.741 C 140.515 116.928,140.145 117.446,140.079 117.891 C 139.930 118.882,138.485 120.270,137.400 120.462 C 136.960 120.541,136.427 120.998,136.216 121.478 C 136.004 121.958,135.486 122.441,135.064 122.552 C 134.554 122.685,134.379 122.969,134.543 123.397 C 134.680 123.751,134.634 123.945,134.442 123.826 C 133.958 123.527,132.000 125.132,132.000 125.829 C 132.000 126.143,131.806 126.400,131.569 126.400 C 131.332 126.400,130.598 126.940,129.938 127.600 C 128.721 128.818,127.836 129.106,127.414 128.423 C 127.286 128.216,126.331 127.936,125.291 127.801 C 122.422 127.430,121.550 127.205,121.745 126.888 C 122.388 125.843,109.332 125.932,108.567 126.978 C 108.169 127.521,107.571 127.714,106.424 127.669 C 104.247 127.584,102.800 128.191,102.800 129.190 C 102.800 129.809,102.538 130.000,101.689 130.000 C 100.465 130.000,98.667 131.061,98.994 131.590 C 99.108 131.774,98.873 131.840,98.473 131.735 C 97.581 131.502,96.622 132.560,96.951 133.416 C 97.089 133.776,97.023 133.938,96.795 133.797 C 96.578 133.663,96.400 133.738,96.400 133.964 C 96.400 134.190,96.153 134.280,95.852 134.164 C 95.264 133.939,94.649 135.032,95.022 135.636 C 95.146 135.836,94.994 136.000,94.686 136.000 C 94.377 136.000,93.809 136.348,93.424 136.773 C 92.666 137.611,91.980 137.509,90.446 136.332 C 89.921 135.929,88.976 135.600,88.346 135.600 C 87.716 135.600,86.833 135.233,86.385 134.785 C 85.937 134.337,85.410 134.070,85.213 134.192 C 85.016 134.314,84.742 134.230,84.604 134.007 C 84.466 133.783,83.746 133.600,83.004 133.600 C 81.910 133.600,81.632 133.430,81.528 132.700 C 81.419 131.935,81.121 131.782,79.532 131.679 C 78.403 131.607,77.453 131.299,77.132 130.903 C 76.684 130.350,76.689 130.300,77.162 130.585 C 77.520 130.801,77.631 130.773,77.467 130.509 C 77.326 130.281,76.470 130.084,75.563 130.072 C 73.754 130.047,73.413 129.862,73.405 128.902 C 73.400 128.212,71.451 127.479,70.335 127.747 C 69.943 127.841,69.593 127.616,69.484 127.198 C 69.350 126.687,68.721 126.409,67.232 126.204 C 65.680 125.991,65.010 125.681,64.537 124.960 C 64.036 124.195,63.562 124.000,62.201 124.000 C 60.830 124.000,60.452 123.842,60.284 123.200 C 60.119 122.570,59.738 122.400,58.491 122.400 L 56.907 122.400 56.647 119.500 C 56.504 117.905,56.345 116.240,56.293 115.800 C 56.242 115.360,55.795 114.822,55.300 114.605 C 54.805 114.388,54.398 113.938,54.396 113.605 C 54.389 112.681,51.722 110.267,51.010 110.541 C 50.674 110.670,50.379 110.556,50.354 110.287 C 50.328 110.019,50.283 109.530,50.254 109.200 C 50.213 108.748,49.563 108.570,47.623 108.479 C 45.559 108.382,44.931 108.194,44.469 107.534 C 43.740 106.493,39.799 106.640,38.996 107.738 C 38.669 108.185,37.925 108.400,36.705 108.400 C 34.966 108.400,33.672 109.139,34.303 109.770 C 34.467 109.933,34.420 110.028,34.200 109.981 C 32.620 109.643,29.636 112.474,30.153 113.821 C 30.281 114.155,30.140 114.400,29.820 114.400 C 29.008 114.400,28.923 128.574,29.725 130.121 C 30.030 130.708,30.378 131.089,30.499 130.967 C 30.621 130.846,30.693 131.074,30.660 131.473 C 30.622 131.939,30.871 132.201,31.355 132.202 C 31.771 132.203,32.259 132.608,32.442 133.102 C 32.686 133.762,33.095 134.000,33.987 134.000 C 34.799 134.000,35.200 134.199,35.200 134.600 C 35.200 134.930,35.451 135.200,35.757 135.200 C 36.064 135.200,36.414 135.459,36.535 135.775 C 36.712 136.236,37.833 136.350,42.186 136.350 C 45.415 136.350,47.524 136.200,47.387 135.980 C 47.261 135.775,47.458 135.724,47.825 135.865 C 48.370 136.074,48.439 135.954,48.203 135.210 C 48.018 134.628,48.061 134.391,48.323 134.552 C 48.548 134.691,48.792 134.642,48.866 134.443 C 49.010 134.052,51.074 133.855,54.072 133.944 C 55.667 133.992,55.963 134.129,56.072 134.869 C 56.142 135.346,56.470 135.826,56.800 135.934 C 57.254 136.082,57.303 135.988,57.000 135.546 C 56.780 135.225,56.899 135.286,57.264 135.681 C 57.629 136.077,58.330 136.400,58.820 136.400 C 59.311 136.400,59.923 136.688,60.180 137.041 C 60.444 137.402,61.478 137.775,62.551 137.896 C 63.936 138.052,64.615 138.356,65.045 139.012 C 65.445 139.622,66.202 139.999,67.383 140.176 C 68.348 140.321,69.230 140.700,69.353 141.023 C 69.477 141.344,69.718 141.584,69.889 141.556 C 71.530 141.287,73.200 141.672,73.200 142.320 C 73.200 143.424,74.017 144.000,75.584 144.000 C 76.574 144.000,77.160 144.243,77.507 144.800 C 77.865 145.373,78.440 145.600,79.537 145.600 C 80.378 145.600,81.202 145.735,81.367 145.900 C 81.532 146.065,81.832 146.222,82.033 146.250 C 82.923 146.371,82.967 146.433,82.412 146.784 C 81.563 147.321,82.106 147.665,84.164 147.897 C 85.208 148.015,86.253 148.416,86.645 148.850 C 87.019 149.263,87.656 149.600,88.062 149.600 C 88.732 149.600,88.800 149.983,88.800 153.764 C 88.800 157.901,88.808 157.936,90.000 158.939 C 91.067 159.836,91.200 160.194,91.200 162.160 C 91.200 163.962,91.348 164.451,92.000 164.800 C 92.440 165.035,92.800 165.582,92.800 166.014 C 92.800 166.716,93.216 166.985,94.093 166.850 C 94.380 166.806,94.583 167.505,94.920 169.700 C 95.047 170.526,94.924 170.800,94.425 170.800 C 93.357 170.800,92.800 171.650,92.800 173.280 C 92.800 174.533,92.660 174.800,92.000 174.800 C 91.416 174.800,91.200 175.067,91.200 175.787 C 91.200 176.468,91.027 176.708,90.642 176.561 C 89.907 176.279,88.800 177.893,88.800 179.245 C 88.800 179.995,88.603 180.295,88.135 180.256 C 87.702 180.219,87.350 180.649,87.128 181.485 C 86.897 182.348,86.601 182.698,86.223 182.554 C 85.606 182.317,84.800 183.519,84.800 184.677 C 84.800 185.079,84.440 185.632,84.000 185.907 C 83.560 186.182,83.200 186.753,83.200 187.176 C 83.200 187.668,82.876 187.991,82.300 188.073 C 81.627 188.170,81.425 188.436,81.499 189.125 C 81.557 189.656,81.430 189.942,81.199 189.800 C 80.980 189.664,80.800 189.806,80.800 190.114 C 80.800 190.423,80.434 191.008,79.986 191.413 C 79.538 191.818,79.265 192.393,79.379 192.690 C 79.493 192.987,79.275 193.348,78.893 193.493 C 78.025 193.822,77.437 194.445,77.275 195.210 C 77.007 196.468,75.808 197.161,73.800 197.217 C 70.441 197.310,69.623 197.570,69.356 198.632 C 69.136 199.510,68.747 199.781,67.900 199.647 C 67.735 199.621,67.621 199.735,67.647 199.900 C 67.782 200.755,67.504 201.137,66.577 201.370 C 65.760 201.575,65.608 201.795,65.820 202.463 C 65.993 203.008,65.937 203.208,65.659 203.037 C 65.365 202.854,65.259 204.409,65.317 208.087 C 65.368 211.356,65.554 213.377,65.800 213.339 C 66.736 213.198,67.600 214.084,67.600 215.186 C 67.600 216.712,68.550 217.600,70.182 217.600 C 71.152 217.600,71.560 217.806,71.708 218.369 C 72.017 219.553,81.181 219.558,81.491 218.374 C 81.622 217.874,82.041 217.600,82.673 217.600 C 83.842 217.600,85.200 216.935,85.200 216.362 C 85.200 216.137,85.022 216.063,84.805 216.197 C 84.578 216.337,84.511 216.177,84.646 215.823 C 84.777 215.483,85.045 215.304,85.242 215.426 C 85.439 215.548,85.600 215.199,85.600 214.651 C 85.600 213.923,85.842 213.621,86.500 213.528 C 87.070 213.447,87.380 213.143,87.344 212.700 C 87.314 212.315,87.449 212.000,87.644 212.000 C 87.840 212.000,88.000 209.750,88.000 207.000 C 88.000 202.947,88.108 202.000,88.568 202.000 C 88.881 202.000,89.251 201.478,89.391 200.841 C 89.535 200.185,89.972 199.596,90.396 199.485 C 90.876 199.360,91.243 198.780,91.411 197.881 C 91.582 196.973,91.946 196.403,92.438 196.274 C 92.940 196.143,93.200 195.721,93.200 195.037 C 93.200 194.420,93.424 194.000,93.754 194.000 C 94.362 194.000,95.796 192.062,95.446 191.713 C 95.077 191.344,95.993 190.000,96.614 190.000 C 96.936 190.000,97.200 189.652,97.200 189.227 C 97.200 188.802,97.533 188.348,97.939 188.219 C 98.757 187.960,99.741 186.152,99.381 185.569 C 99.255 185.365,99.621 185.020,100.194 184.802 C 100.767 184.584,101.207 184.180,101.171 183.903 C 101.032 182.839,101.223 182.400,101.824 182.400 C 102.167 182.400,102.337 182.222,102.203 182.005 C 102.067 181.785,102.213 181.707,102.530 181.829 C 103.144 182.064,103.862 179.547,103.396 178.793 C 103.262 178.577,103.540 178.400,104.014 178.400 C 104.538 178.400,104.957 178.087,105.084 177.600 C 105.286 176.829,105.630 176.800,114.567 176.800 C 121.431 176.800,123.980 176.670,124.379 176.300 C 124.810 175.900,124.861 175.900,124.635 176.300 C 124.162 177.137,125.006 176.858,125.934 175.870 C 126.414 175.359,126.686 174.819,126.537 174.670 C 126.388 174.522,126.972 174.397,127.833 174.393 C 128.962 174.388,129.655 174.118,130.312 173.424 C 131.304 172.378,133.410 172.559,134.076 173.749 C 134.247 174.056,135.201 174.429,136.194 174.578 C 137.768 174.814,138.000 174.975,138.000 175.825 C 138.000 176.361,138.135 176.779,138.300 176.753 C 139.113 176.624,139.525 176.871,139.716 177.600 C 139.844 178.088,140.262 178.400,140.788 178.400 C 141.263 178.400,142.106 178.940,142.661 179.600 C 143.243 180.291,144.060 180.800,144.589 180.800 C 145.170 180.800,145.583 181.093,145.716 181.600 C 145.859 182.146,146.262 182.400,146.986 182.400 C 147.570 182.400,147.940 182.573,147.809 182.785 C 147.440 183.383,149.089 184.800,150.153 184.800 C 150.770 184.800,151.181 185.082,151.316 185.600 C 151.457 186.141,151.862 186.400,152.563 186.400 L 153.600 186.400 153.600 192.986 C 153.600 199.027,153.662 199.605,154.353 199.975 C 154.768 200.197,155.222 200.993,155.363 201.745 C 155.530 202.634,155.894 203.184,156.405 203.317 C 156.837 203.430,157.361 203.972,157.570 204.522 C 157.853 205.266,158.344 205.588,159.489 205.781 C 160.537 205.958,161.151 206.322,161.414 206.921 C 161.709 207.593,162.201 207.829,163.498 207.923 C 164.686 208.009,165.321 208.279,165.612 208.823 C 166.257 210.027,174.769 210.007,175.084 208.800 C 175.252 208.159,175.630 208.000,176.985 208.000 C 178.704 208.000,181.200 207.040,181.200 206.378 C 181.200 206.179,181.650 205.902,182.200 205.764 C 182.826 205.607,183.200 205.230,183.200 204.757 C 183.200 204.340,183.462 204.000,183.782 204.000 C 184.715 204.000,187.200 200.443,187.200 199.107 C 187.200 197.423,188.555 196.430,190.874 196.413 C 193.372 196.396,194.800 195.819,194.800 194.827 C 194.800 194.121,195.116 194.022,197.700 193.918 C 200.176 193.817,200.592 193.698,200.544 193.100 C 200.496 192.490,200.878 192.400,203.511 192.400 C 205.173 192.400,206.420 192.286,206.281 192.147 C 205.444 191.311,206.906 190.500,209.595 190.308 C 211.275 190.187,212.700 189.862,213.110 189.504 C 213.493 189.171,214.957 188.804,216.395 188.681 C 218.532 188.498,219.147 188.277,219.876 187.429 C 220.606 186.581,221.110 186.400,222.748 186.400 C 225.108 186.400,226.000 186.114,226.000 185.357 C 226.000 184.939,226.640 184.800,228.571 184.800 C 231.166 184.800,232.400 184.225,232.400 183.015 C 232.400 182.638,233.267 182.444,235.439 182.334 C 237.859 182.212,238.593 182.024,239.039 181.414 C 239.583 180.670,239.600 180.674,239.600 181.524 C 239.600 182.133,239.843 182.400,240.400 182.400 C 240.992 182.400,241.200 182.667,241.200 183.424 C 241.200 184.004,241.373 184.340,241.600 184.200 C 241.820 184.064,242.000 184.143,242.000 184.376 C 242.000 184.609,242.258 184.800,242.573 184.800 C 242.888 184.800,243.260 185.160,243.400 185.600 C 243.540 186.040,243.989 186.400,244.399 186.400 C 244.867 186.400,245.192 186.734,245.272 187.300 C 245.371 187.993,245.797 188.296,247.124 188.616 C 248.073 188.845,249.011 189.295,249.210 189.616 C 249.806 190.581,266.704 190.472,267.248 189.500 C 267.763 188.580,270.800 188.495,270.800 189.400 C 270.800 189.730,271.060 190.000,271.378 190.000 C 271.696 190.000,272.193 190.495,272.482 191.100 C 272.778 191.721,273.398 192.256,273.904 192.328 C 274.478 192.410,274.800 192.733,274.800 193.228 C 274.800 193.699,275.075 194.000,275.505 194.000 C 275.893 194.000,276.388 194.405,276.605 194.900 C 276.822 195.395,277.405 195.978,277.900 196.195 C 278.395 196.412,278.800 196.834,278.800 197.132 C 278.800 197.431,279.160 197.769,279.600 197.884 C 280.040 197.999,280.400 198.338,280.400 198.637 C 280.400 198.936,281.047 199.513,281.837 199.918 C 282.627 200.324,283.212 200.823,283.137 201.028 C 283.062 201.232,283.555 201.580,284.234 201.800 C 285.021 202.055,285.399 202.404,285.279 202.764 C 285.150 203.151,285.295 203.249,285.745 203.076 C 286.209 202.898,286.400 203.045,286.400 203.580 C 286.400 204.366,288.630 206.000,289.704 206.000 C 290.039 206.000,290.426 206.450,290.564 207.000 C 290.702 207.550,291.075 208.000,291.392 208.000 C 291.842 208.000,291.994 208.772,292.084 211.500 C 292.191 214.731,292.266 215.009,293.058 215.122 C 293.854 215.236,294.198 216.009,294.473 218.300 C 294.506 218.575,294.674 218.800,294.846 218.800 C 295.019 218.800,295.691 219.369,296.341 220.064 C 297.343 221.136,297.877 221.356,299.861 221.516 C 301.268 221.629,302.330 221.926,302.525 222.262 C 302.953 222.995,307.599 222.867,307.888 222.114 C 308.005 221.811,308.767 221.597,309.743 221.594 C 311.453 221.588,312.563 221.138,312.650 220.415 C 312.678 220.187,312.723 219.820,312.750 219.600 C 312.778 219.380,312.935 219.230,313.100 219.266 C 313.951 219.452,315.629 218.651,315.436 218.151 C 315.320 217.848,315.399 217.600,315.613 217.600 C 315.826 217.600,316.000 217.073,316.000 216.428 C 316.000 215.517,316.201 215.227,316.900 215.128 C 317.470 215.047,317.780 214.743,317.744 214.300 C 317.714 213.915,317.849 213.600,318.044 213.600 C 318.449 213.600,318.530 207.149,318.149 205.245 C 317.974 204.368,317.612 203.918,316.949 203.751 C 316.242 203.574,316.000 203.237,316.000 202.426 C 316.000 201.148,314.627 199.728,313.204 199.535 C 312.588 199.452,312.151 199.095,312.058 198.600 C 311.815 197.308,311.312 197.213,304.743 197.206 C 299.554 197.201,298.446 197.098,298.255 196.600 C 298.129 196.270,297.844 196.000,297.622 196.000 C 297.400 196.000,296.275 195.100,295.122 194.000 C 293.969 192.900,292.891 192.000,292.726 192.000 C 292.562 192.000,291.875 191.460,291.200 190.800 C 290.525 190.140,289.709 189.600,289.386 189.600 C 289.064 189.600,288.800 189.313,288.800 188.963 C 288.800 188.612,288.478 188.241,288.084 188.138 C 287.691 188.035,287.196 187.557,286.984 187.075 C 286.773 186.594,286.195 186.022,285.700 185.805 C 285.205 185.588,284.800 185.166,284.800 184.868 C 284.800 184.569,284.440 184.231,284.000 184.116 C 283.560 184.001,283.200 183.662,283.200 183.364 C 283.200 183.065,282.660 182.541,282.000 182.200 C 281.340 181.859,280.800 181.297,280.800 180.952 C 280.800 180.607,280.440 180.231,280.000 180.116 C 279.143 179.892,279.091 179.667,279.199 176.614 C 279.250 175.164,279.475 174.482,280.034 174.091 C 281.374 173.152,281.121 163.200,279.757 163.200 C 279.365 163.200,279.200 162.676,279.200 161.426 C 279.200 159.130,278.593 157.576,277.595 157.315 C 277.082 157.180,276.800 156.768,276.800 156.153 C 276.800 155.478,276.575 155.200,276.028 155.200 C 275.532 155.200,275.210 154.878,275.128 154.300 C 275.058 153.805,274.593 153.222,274.096 153.004 C 273.599 152.786,273.092 152.291,272.969 151.904 C 272.847 151.517,272.410 151.200,272.000 151.200 C 271.590 151.200,271.146 150.859,271.014 150.443 C 270.716 149.506,269.132 148.844,266.915 148.731 L 265.231 148.645 265.208 120.123 C 265.188 94.697,265.252 91.600,265.801 91.600 C 266.140 91.600,266.622 91.150,266.873 90.600 C 267.457 89.318,268.543 89.318,269.127 90.600 C 269.483 91.382,269.880 91.600,270.945 91.600 C 271.970 91.600,272.358 91.798,272.516 92.400 C 272.668 92.980,273.062 93.200,273.951 93.200 C 274.848 93.200,275.413 93.521,276.063 94.400 C 276.580 95.099,277.317 95.600,277.829 95.600 C 278.370 95.600,278.787 95.906,278.916 96.400 C 279.082 97.036,279.462 97.200,280.763 97.200 C 281.984 97.200,282.400 97.360,282.400 97.829 C 282.400 98.871,283.459 99.600,284.971 99.600 C 286.133 99.600,286.400 99.749,286.400 100.400 C 286.400 100.964,286.667 101.200,287.305 101.200 C 287.852 101.200,288.367 101.549,288.605 102.081 C 288.831 102.585,289.562 103.104,290.315 103.296 C 291.039 103.480,291.984 103.984,292.415 104.415 C 292.849 104.849,293.741 105.200,294.410 105.200 C 295.332 105.200,295.710 105.438,296.000 106.200 C 296.258 106.878,296.685 107.200,297.328 107.200 C 297.849 107.200,298.602 107.560,299.000 108.000 C 299.401 108.443,300.232 108.800,300.862 108.800 C 301.691 108.800,302.000 108.995,302.000 109.520 C 302.000 110.642,302.824 111.200,304.480 111.200 C 305.733 111.200,306.000 111.340,306.000 112.000 C 306.000 112.648,306.267 112.800,307.400 112.800 C 308.170 112.800,308.800 112.996,308.800 113.236 C 308.800 113.764,310.422 115.168,311.053 115.187 C 311.303 115.194,311.601 115.560,311.716 116.000 C 311.836 116.458,312.262 116.800,312.711 116.800 C 313.318 116.800,313.556 117.162,313.751 118.381 C 313.890 119.251,314.246 120.106,314.543 120.281 C 314.840 120.456,315.289 120.993,315.541 121.473 C 315.793 121.953,316.359 122.460,316.800 122.600 C 317.240 122.740,317.600 123.143,317.600 123.495 C 317.600 123.848,317.910 124.480,318.290 124.899 C 318.669 125.318,319.164 126.232,319.390 126.931 C 319.665 127.782,320.096 128.242,320.700 128.328 C 321.278 128.410,321.600 128.732,321.600 129.228 C 321.600 129.733,321.876 130.000,322.400 130.000 C 323.003 130.000,323.203 130.271,323.213 131.100 C 323.220 131.705,323.490 132.549,323.813 132.976 C 324.136 133.404,324.400 133.616,324.400 133.448 C 324.400 133.280,324.670 133.413,325.000 133.743 C 325.330 134.073,325.600 134.704,325.600 135.144 C 325.600 135.595,325.951 136.057,326.400 136.200 C 326.840 136.340,327.200 136.685,327.200 136.969 C 327.200 137.252,327.626 137.943,328.148 138.506 C 328.669 139.068,329.212 139.994,329.355 140.564 C 329.498 141.134,329.842 141.600,330.120 141.600 C 330.398 141.600,330.828 142.140,331.078 142.800 C 331.382 143.605,331.805 144.000,332.365 144.000 C 333.003 144.000,333.200 144.252,333.200 145.069 C 333.200 145.656,333.499 146.467,333.864 146.871 C 334.230 147.275,334.729 148.009,334.975 148.503 C 335.220 148.996,335.821 149.458,336.310 149.528 C 336.979 149.624,337.200 149.924,337.200 150.739 C 337.200 151.335,337.560 152.130,338.000 152.507 C 338.440 152.884,338.800 153.436,338.800 153.734 C 338.800 154.491,340.260 155.734,340.775 155.416 C 341.033 155.256,341.200 155.555,341.200 156.176 C 341.200 156.829,341.422 157.200,341.813 157.200 C 342.468 157.200,343.208 158.702,342.923 159.452 C 342.829 159.700,343.188 160.247,343.722 160.667 C 344.256 161.087,344.823 161.842,344.982 162.344 C 345.160 162.904,345.489 163.175,345.831 163.043 C 346.139 162.925,346.371 162.957,346.348 163.114 C 346.228 163.921,346.503 164.478,347.558 165.557 C 348.623 166.647,348.727 167.017,348.858 170.203 C 348.960 172.689,349.170 173.796,349.605 174.132 C 349.938 174.390,350.429 175.095,350.696 175.700 C 351.103 176.620,351.430 176.800,352.695 176.800 C 353.774 176.800,354.351 177.029,354.707 177.600 C 355.518 178.899,362.400 178.678,362.400 177.353 C 362.400 177.043,362.803 176.800,363.320 176.800 C 364.423 176.800,365.200 176.106,365.200 175.120 C 365.200 174.724,365.380 174.400,365.600 174.400 C 366.386 174.400,366.105 163.472,365.300 162.750 C 364.915 162.405,364.420 161.811,364.200 161.432 C 363.916 160.941,363.077 160.676,361.300 160.515 C 359.045 160.311,358.800 160.201,358.800 159.393 C 358.800 158.901,358.549 158.290,358.243 158.036 C 357.937 157.781,357.465 157.039,357.195 156.387 C 356.914 155.709,356.402 155.200,356.001 155.200 C 355.542 155.200,355.217 154.786,355.060 154.000 C 354.919 153.296,354.568 152.800,354.210 152.800 C 353.867 152.800,353.600 152.450,353.600 152.000 C 353.600 151.560,353.420 151.200,353.200 151.200 C 352.980 151.200,352.821 151.065,352.847 150.900 C 352.978 150.075,352.727 149.631,352.000 149.400 C 351.547 149.256,351.200 148.795,351.200 148.336 C 351.200 147.862,350.868 147.438,350.400 147.316 C 349.943 147.196,349.600 146.770,349.600 146.323 C 349.600 145.891,349.060 144.998,348.400 144.338 C 347.740 143.678,347.200 142.865,347.200 142.532 C 347.200 142.198,346.850 141.834,346.422 141.722 C 345.995 141.610,345.590 141.139,345.522 140.676 C 345.447 140.158,345.014 139.743,344.400 139.600 C 343.551 139.403,343.381 139.107,343.275 137.640 C 343.182 136.362,342.958 135.862,342.412 135.719 C 342.006 135.613,341.584 135.183,341.474 134.763 C 341.363 134.339,340.926 134.000,340.489 134.000 C 339.882 134.000,339.644 133.638,339.448 132.413 C 339.293 131.442,338.896 130.665,338.425 130.414 C 338.002 130.187,337.598 129.596,337.528 129.101 C 337.446 128.522,337.079 128.154,336.500 128.072 C 335.934 127.992,335.600 127.667,335.600 127.199 C 335.600 126.789,335.274 126.351,334.876 126.224 C 334.423 126.080,334.012 125.361,333.776 124.297 C 333.485 122.983,333.197 122.571,332.500 122.472 C 331.838 122.378,331.600 122.077,331.600 121.335 C 331.600 120.662,331.333 120.255,330.800 120.116 C 330.360 120.001,330.000 119.672,330.000 119.386 C 330.000 118.538,328.642 116.405,328.100 116.403 C 327.825 116.401,327.600 116.023,327.600 115.563 C 327.600 115.062,327.279 114.641,326.800 114.516 C 326.353 114.399,326.000 113.970,326.000 113.545 C 326.000 113.120,325.557 112.581,325.000 112.327 C 323.766 111.765,323.746 111.501,324.900 110.995 C 325.395 110.778,325.855 110.213,325.923 109.740 C 326.011 109.120,326.419 108.811,327.384 108.629 C 328.120 108.491,328.824 108.113,328.949 107.789 C 329.073 107.465,329.544 107.200,329.996 107.200 C 330.484 107.200,331.002 106.794,331.273 106.200 C 331.523 105.650,331.880 105.200,332.064 105.200 C 332.249 105.200,332.746 104.854,333.170 104.430 C 333.593 104.007,334.313 103.461,334.770 103.216 C 335.226 102.972,335.600 102.418,335.600 101.986 C 335.600 101.471,335.871 101.200,336.386 101.200 C 336.818 101.200,337.365 100.840,337.600 100.400 C 337.835 99.960,338.296 99.600,338.624 99.600 C 338.961 99.600,339.320 99.098,339.451 98.445 C 339.646 97.469,339.924 97.250,341.241 97.040 C 342.243 96.880,342.800 96.578,342.800 96.195 C 342.800 95.868,343.150 95.600,343.577 95.600 C 344.017 95.600,344.663 95.079,345.064 94.400 C 345.454 93.740,346.094 93.200,346.486 93.200 C 346.925 93.200,347.200 92.902,347.200 92.428 C 347.200 91.932,347.522 91.610,348.100 91.528 C 348.595 91.458,349.173 91.006,349.384 90.525 C 349.596 90.043,350.091 89.565,350.484 89.462 C 350.878 89.359,351.200 88.988,351.200 88.637 C 351.200 88.274,351.532 88.000,351.973 88.000 C 352.398 88.000,353.124 87.468,353.587 86.818 C 354.406 85.667,354.514 85.637,357.515 85.718 C 362.103 85.840,362.800 85.555,362.800 83.555 C 362.800 82.262,362.635 81.882,362.000 81.716 C 361.479 81.580,361.200 81.170,361.200 80.543 C 361.200 79.793,360.935 79.527,360.000 79.340 C 359.063 79.153,358.800 78.888,358.800 78.132 C 358.800 77.599,358.395 76.759,357.900 76.264 C 357.405 75.769,357.000 75.102,357.000 74.782 C 357.000 74.462,356.616 74.145,356.146 74.078 C 355.563 73.995,355.216 73.581,355.056 72.778 C 354.924 72.121,354.562 71.600,354.237 71.600 C 353.916 71.600,353.540 71.240,353.400 70.800 C 353.242 70.302,352.795 70.000,352.216 70.000 C 351.558 70.000,351.213 69.708,351.036 69.000 C 350.822 68.149,350.554 68.000,349.241 68.000 C 347.050 68.000,346.642 68.697,346.581 72.542 C 346.537 75.291,346.421 75.821,345.835 75.935 C 345.427 76.014,345.231 76.303,345.358 76.635 C 345.500 77.005,345.095 77.400,344.187 77.779 C 343.424 78.098,342.800 78.536,342.800 78.753 C 342.800 78.969,342.440 79.260,342.000 79.400 C 341.489 79.562,341.200 80.005,341.200 80.627 C 341.200 81.408,340.995 81.600,340.163 81.600 C 339.462 81.600,339.057 81.859,338.916 82.400 C 338.800 82.843,338.370 83.200,337.953 83.200 C 337.383 83.200,337.200 83.491,337.200 84.400 C 337.200 85.509,337.092 85.600,335.776 85.600 C 334.940 85.600,334.454 85.763,334.597 85.995 C 334.737 86.222,334.577 86.289,334.221 86.153 C 333.818 85.998,333.600 86.141,333.600 86.557 C 333.600 86.911,333.283 87.200,332.896 87.200 C 332.102 87.200,331.048 88.630,331.410 89.216 C 331.540 89.427,331.170 89.600,330.586 89.600 C 329.862 89.600,329.459 89.854,329.316 90.400 C 329.196 90.860,328.770 91.200,328.316 91.200 C 327.874 91.200,327.437 91.537,327.326 91.963 C 327.216 92.383,326.783 92.816,326.363 92.926 C 325.938 93.037,325.600 93.474,325.600 93.913 C 325.600 94.467,325.246 94.771,324.400 94.940 C 323.740 95.072,323.199 95.410,323.197 95.690 C 323.195 95.971,322.449 96.650,321.538 97.200 C 320.628 97.750,319.414 98.484,318.841 98.830 C 318.269 99.177,317.742 99.855,317.671 100.336 C 317.601 100.819,317.357 101.097,317.128 100.955 C 316.899 100.814,316.284 101.198,315.760 101.808 L 314.807 102.917 313.986 101.873 C 313.516 101.275,312.575 100.719,311.783 100.570 C 310.980 100.420,310.400 100.074,310.400 99.745 C 310.400 99.434,309.860 99.072,309.200 98.940 C 308.540 98.808,308.000 98.542,308.000 98.348 C 308.000 98.155,307.100 97.604,306.000 97.123 C 304.900 96.643,304.000 96.025,304.000 95.750 C 304.000 95.463,303.231 95.134,302.200 94.979 C 301.147 94.821,300.400 94.497,300.400 94.198 C 300.400 93.917,299.715 93.413,298.877 93.078 C 298.040 92.743,297.118 92.183,296.828 91.834 C 296.539 91.485,295.895 91.200,295.398 91.200 C 294.830 91.200,294.415 90.902,294.284 90.400 C 294.125 89.790,293.738 89.600,292.659 89.600 C 291.509 89.600,291.145 89.394,290.719 88.500 C 290.309 87.639,289.873 87.373,288.717 87.277 C 287.690 87.192,287.166 86.924,287.001 86.402 C 286.861 85.961,286.314 85.598,285.681 85.525 C 284.921 85.437,284.563 85.139,284.475 84.521 C 284.375 83.819,283.998 83.589,282.611 83.381 C 281.373 83.195,280.815 82.901,280.674 82.360 C 280.515 81.752,280.106 81.600,278.637 81.600 C 276.948 81.600,276.800 81.520,276.800 80.608 C 276.800 79.868,276.530 79.548,275.742 79.350 C 273.653 78.825,273.200 77.917,273.200 74.254 C 273.200 71.608,273.045 70.708,272.460 69.954 C 272.053 69.429,271.546 68.460,271.334 67.800 C 271.122 67.140,270.585 66.435,270.140 66.234 C 269.696 66.032,269.168 65.492,268.966 65.034 C 268.765 64.575,268.029 64.015,267.331 63.790 C 266.632 63.564,265.718 63.069,265.299 62.690 C 264.400 61.876,252.933 61.665,250.934 62.425 C 250.145 62.725,249.775 62.725,249.675 62.425 C 249.597 62.191,249.231 62.000,248.862 62.000 C 248.492 62.000,248.012 61.595,247.795 61.100 C 247.578 60.605,246.995 60.142,246.500 60.072 C 245.922 59.990,245.600 59.668,245.600 59.172 C 245.600 58.730,245.326 58.400,244.958 58.400 C 244.604 58.400,243.961 57.950,243.529 57.400 C 243.096 56.850,242.516 56.400,242.241 56.400 C 241.965 56.400,241.317 55.950,240.800 55.400 C 240.283 54.850,239.442 54.400,238.930 54.400 C 238.295 54.400,238.000 54.168,238.000 53.668 C 238.000 53.265,237.550 52.694,237.000 52.400 C 236.450 52.106,236.000 51.637,236.000 51.359 C 236.000 51.081,235.595 50.726,235.100 50.570 C 234.605 50.413,233.965 49.951,233.677 49.543 C 233.390 49.134,232.925 48.800,232.644 48.800 C 232.363 48.800,231.608 48.265,230.967 47.611 C 230.325 46.957,229.485 46.417,229.100 46.411 C 228.715 46.405,228.400 46.126,228.400 45.790 C 228.400 45.432,227.904 45.081,227.200 44.940 C 226.271 44.754,226.000 44.486,226.000 43.750 C 226.000 43.078,225.774 42.800,225.227 42.800 C 224.802 42.800,224.340 42.440,224.200 42.000 C 224.041 41.500,223.595 41.200,223.009 41.200 C 222.458 41.200,221.654 40.705,221.061 40.000 C 220.506 39.340,219.680 38.800,219.226 38.800 C 218.667 38.800,218.400 38.542,218.400 38.000 C 218.400 37.539,218.133 37.200,217.771 37.200 C 216.966 37.200,216.090 36.330,216.290 35.730 C 216.375 35.476,216.068 35.149,215.609 35.003 C 213.634 34.376,212.833 32.966,212.758 29.984 C 212.693 27.428,212.585 27.090,211.544 26.214 C 210.915 25.685,210.400 25.002,210.400 24.698 C 210.400 22.788,208.793 22.400,200.888 22.400 L 193.382 22.400 191.891 23.629 M205.884 44.000 C 206.032 44.567,206.430 44.800,207.247 44.800 C 208.261 44.800,208.400 44.944,208.400 46.000 C 208.400 46.879,208.588 47.200,209.104 47.200 C 209.491 47.200,210.032 47.560,210.307 48.000 C 210.582 48.440,211.165 48.800,211.603 48.800 C 212.042 48.800,212.400 49.049,212.400 49.354 C 212.400 50.060,214.121 51.200,215.186 51.200 C 215.664 51.200,216.000 51.463,216.000 51.837 C 216.000 52.188,216.360 52.569,216.800 52.684 C 217.240 52.799,217.600 53.151,217.600 53.465 C 217.600 53.780,218.139 54.344,218.797 54.719 C 219.456 55.093,219.996 55.625,219.997 55.900 C 219.999 56.175,220.328 56.400,220.728 56.400 C 221.128 56.400,222.061 56.940,222.800 57.600 C 223.539 58.260,224.472 58.800,224.872 58.800 C 225.333 58.800,225.600 59.093,225.600 59.600 C 225.600 60.164,225.867 60.400,226.502 60.400 C 227.120 60.400,227.572 60.778,227.936 61.600 C 228.228 62.260,228.679 62.800,228.937 62.800 C 229.196 62.800,229.632 63.160,229.907 63.600 C 230.251 64.150,230.874 64.414,231.903 64.446 C 232.727 64.472,233.085 64.575,232.700 64.676 C 232.315 64.776,232.000 65.045,232.000 65.272 C 232.000 65.500,232.272 65.581,232.604 65.454 C 232.957 65.318,233.411 65.549,233.700 66.011 C 233.971 66.445,234.509 66.800,234.896 66.800 C 235.333 66.800,235.600 67.103,235.600 67.600 C 235.600 68.133,235.867 68.400,236.400 68.400 C 236.840 68.400,237.200 68.648,237.200 68.951 C 237.200 69.255,237.723 69.720,238.362 69.984 C 239.001 70.249,239.609 70.792,239.713 71.190 C 239.822 71.604,240.438 72.033,241.151 72.189 C 241.838 72.340,242.400 72.719,242.400 73.032 C 242.400 73.344,242.561 73.600,242.758 73.600 C 242.955 73.600,243.180 75.775,243.258 78.433 C 243.377 82.466,243.517 83.350,244.101 83.777 C 244.485 84.058,244.800 84.493,244.800 84.744 C 244.800 84.995,244.942 85.200,245.116 85.200 C 245.289 85.200,245.424 85.695,245.416 86.300 C 245.404 87.142,245.611 87.430,246.300 87.528 C 246.795 87.598,247.200 87.918,247.200 88.238 C 247.200 88.896,248.765 89.600,250.226 89.600 C 250.948 89.600,251.200 89.817,251.200 90.437 C 251.200 90.938,251.521 91.359,252.000 91.484 C 253.098 91.771,253.284 147.200,252.187 147.200 C 251.851 147.200,251.471 147.470,251.345 147.800 C 251.218 148.130,250.793 148.400,250.400 148.400 C 250.007 148.400,249.582 148.130,249.455 147.800 C 249.329 147.470,248.970 147.200,248.659 147.200 C 248.348 147.200,248.000 146.842,247.885 146.405 C 247.771 145.967,247.210 145.432,246.639 145.215 C 246.067 144.998,245.600 144.545,245.600 144.210 C 245.600 143.874,245.396 143.600,245.146 143.600 C 244.896 143.600,244.285 143.195,243.788 142.700 C 241.673 140.594,240.510 139.600,240.163 139.600 C 239.959 139.600,239.568 139.240,239.293 138.800 C 239.018 138.360,238.480 137.999,238.097 137.999 C 237.713 137.998,237.040 137.459,236.600 136.800 C 236.108 136.063,235.454 135.602,234.900 135.601 C 234.267 135.600,234.000 135.363,234.000 134.800 C 234.000 134.360,233.735 134.000,233.410 134.000 C 233.086 134.000,232.541 133.460,232.200 132.800 C 231.828 132.081,231.263 131.600,230.790 131.600 C 230.347 131.600,230.000 131.331,230.000 130.987 C 230.000 130.651,229.712 130.264,229.360 130.129 C 229.008 129.994,228.296 129.460,227.778 128.942 C 227.260 128.424,226.669 128.000,226.465 128.000 C 226.260 128.000,225.999 127.640,225.884 127.200 C 225.746 126.672,225.338 126.400,224.684 126.400 C 224.055 126.400,223.622 126.129,223.499 125.657 C 223.392 125.248,222.739 124.663,222.048 124.357 C 221.356 124.051,220.691 123.485,220.568 123.100 C 220.437 122.686,219.949 122.400,219.373 122.400 C 218.599 122.400,218.400 122.193,218.400 121.387 C 218.400 120.789,218.114 120.268,217.700 120.114 C 217.315 119.970,216.765 119.526,216.477 119.126 C 216.190 118.727,215.605 118.400,215.177 118.400 C 214.671 118.400,214.400 118.126,214.400 117.614 C 214.400 117.182,213.995 116.617,213.500 116.360 C 213.005 116.102,212.278 115.556,211.884 115.146 C 211.491 114.736,210.821 114.400,210.397 114.400 C 209.840 114.400,209.697 114.214,209.882 113.731 C 210.077 113.223,209.977 113.123,209.469 113.318 C 209.024 113.489,208.800 113.371,208.800 112.964 C 208.800 112.628,208.620 112.464,208.400 112.600 C 208.180 112.736,208.000 112.657,208.000 112.424 C 208.000 112.191,207.839 112.000,207.642 112.000 C 207.118 112.000,204.994 109.915,204.688 109.100 C 204.543 108.715,204.080 108.400,203.659 108.400 C 203.230 108.400,202.801 108.049,202.684 107.600 C 202.569 107.160,202.200 106.800,201.864 106.800 C 201.529 106.800,201.143 106.449,201.006 106.020 C 200.870 105.592,200.397 105.126,199.955 104.986 C 199.513 104.845,198.953 104.296,198.711 103.765 C 198.470 103.234,197.935 102.800,197.523 102.800 C 197.112 102.800,196.681 102.554,196.565 102.254 C 196.450 101.953,195.655 101.368,194.800 100.954 C 193.944 100.539,193.161 99.885,193.059 99.500 C 192.944 99.061,192.489 98.800,191.837 98.800 C 191.061 98.800,190.800 98.595,190.800 97.987 C 190.800 97.541,190.535 97.073,190.211 96.949 C 189.617 96.721,189.114 94.861,189.040 92.617 C 189.009 91.674,188.797 91.371,188.100 91.272 C 187.318 91.161,187.200 90.907,187.200 89.335 C 187.200 87.862,187.051 87.486,186.400 87.316 C 185.959 87.201,185.600 86.770,185.600 86.357 C 185.600 85.944,185.258 85.393,184.840 85.132 C 184.422 84.871,184.171 84.419,184.283 84.129 C 184.394 83.838,184.306 83.600,184.086 83.600 C 183.866 83.600,183.586 83.339,183.463 83.020 C 183.320 82.648,183.433 82.515,183.779 82.647 C 184.547 82.942,185.600 81.252,185.600 79.725 C 185.600 78.827,185.852 78.293,186.421 77.989 C 186.872 77.747,187.212 77.246,187.175 76.875 C 187.013 75.242,187.234 74.400,187.824 74.400 C 188.167 74.400,188.336 74.220,188.200 74.000 C 188.064 73.780,188.210 73.600,188.525 73.600 C 188.881 73.600,189.192 73.011,189.347 72.044 C 189.483 71.188,189.867 70.383,190.198 70.256 C 190.574 70.112,190.800 69.505,190.800 68.641 C 190.800 67.880,191.061 66.996,191.381 66.676 C 191.700 66.357,191.835 65.955,191.681 65.783 C 191.526 65.612,191.613 65.594,191.872 65.742 C 192.385 66.036,192.976 65.358,193.041 64.400 C 193.063 64.070,193.108 63.506,193.141 63.147 C 193.173 62.787,193.560 62.399,194.000 62.284 C 194.654 62.113,194.800 61.738,194.800 60.237 C 194.800 58.897,194.957 58.400,195.381 58.400 C 196.130 58.400,197.152 56.209,197.266 54.357 C 197.330 53.335,197.537 52.927,197.978 52.957 C 198.438 52.989,198.652 52.485,198.800 51.016 C 198.973 49.303,199.137 49.000,200.000 48.800 C 200.864 48.599,201.016 48.317,201.120 46.725 C 201.235 44.972,201.308 44.869,202.620 44.623 C 203.442 44.468,204.000 44.129,204.000 43.782 C 204.000 42.882,205.642 43.072,205.884 44.000 M184.800 109.551 C 184.800 110.409,185.788 111.379,186.324 111.047 C 186.521 110.925,186.885 111.269,187.133 111.813 C 187.380 112.356,187.915 112.800,188.322 112.800 C 188.728 112.800,189.497 113.269,190.030 113.842 C 190.564 114.416,191.405 115.041,191.900 115.233 C 192.395 115.424,192.800 115.855,192.800 116.190 C 192.800 116.526,193.117 116.800,193.505 116.800 C 193.893 116.800,194.390 117.205,194.609 117.700 C 194.829 118.195,195.320 118.575,195.700 118.545 C 196.080 118.515,196.311 118.621,196.212 118.780 C 195.932 119.234,197.180 120.800,197.823 120.800 C 198.140 120.800,198.400 121.070,198.400 121.400 C 198.400 121.730,198.565 122.000,198.766 122.000 C 198.967 122.000,199.642 122.540,200.265 123.200 C 200.888 123.860,201.578 124.407,201.799 124.416 C 202.019 124.425,202.823 124.965,203.585 125.616 C 204.347 126.267,205.181 126.800,205.438 126.800 C 205.696 126.800,206.001 127.160,206.116 127.600 C 206.257 128.141,206.662 128.400,207.363 128.400 C 208.133 128.400,208.400 128.606,208.400 129.200 C 208.400 129.640,208.625 130.001,208.900 130.003 C 209.175 130.004,209.707 130.544,210.081 131.203 C 210.456 131.861,211.029 132.400,211.354 132.400 C 211.680 132.400,212.059 132.756,212.197 133.192 C 212.336 133.627,212.573 133.966,212.724 133.945 C 213.519 133.831,214.000 134.058,214.000 134.546 C 214.000 135.099,217.431 138.000,218.085 138.000 C 218.279 138.000,218.835 138.418,219.319 138.930 C 219.804 139.441,220.515 139.976,220.900 140.117 C 221.285 140.259,221.600 140.651,221.600 140.987 C 221.600 141.401,221.989 141.600,222.800 141.600 C 223.867 141.600,224.000 141.733,224.000 142.800 C 224.000 143.709,224.183 144.000,224.753 144.000 C 225.170 144.000,225.600 144.357,225.716 144.800 C 225.841 145.279,226.262 145.600,226.763 145.600 C 227.223 145.600,227.600 145.774,227.600 145.986 C 227.600 146.675,230.547 149.600,231.241 149.600 C 231.611 149.600,232.022 149.881,232.154 150.225 C 232.289 150.575,232.599 150.724,232.859 150.564 C 233.151 150.383,233.216 150.451,233.033 150.747 C 232.848 151.046,233.260 151.433,234.171 151.814 C 234.957 152.142,235.600 152.678,235.600 153.005 C 235.600 153.332,235.939 153.600,236.353 153.600 C 236.769 153.600,237.200 153.957,237.315 154.395 C 237.429 154.833,237.990 155.368,238.561 155.585 C 240.158 156.192,240.109 159.088,238.500 159.273 C 237.425 159.397,237.397 159.466,237.282 162.313 C 237.204 164.250,237.022 165.137,236.738 164.961 C 236.012 164.513,235.613 165.691,235.606 168.300 L 235.600 170.800 232.627 170.800 C 230.005 170.800,229.624 170.895,229.400 171.600 C 229.184 172.280,228.795 172.400,226.799 172.400 C 223.936 172.400,222.579 172.872,222.292 173.969 C 222.098 174.713,221.774 174.800,219.214 174.800 C 217.408 174.800,216.444 174.948,216.600 175.200 C 216.736 175.420,216.792 175.614,216.724 175.630 C 216.656 175.647,215.160 175.873,213.400 176.133 C 211.042 176.482,210.200 176.764,210.200 177.203 C 210.200 178.037,209.250 178.367,207.553 178.123 C 205.939 177.891,204.400 178.521,204.400 179.414 C 204.400 179.872,203.799 180.000,201.654 180.000 C 199.514 180.000,198.684 180.176,197.891 180.800 C 197.331 181.240,196.418 181.600,195.861 181.600 C 195.303 181.600,194.734 181.783,194.596 182.007 C 194.458 182.230,194.205 182.327,194.035 182.222 C 193.444 181.857,190.800 182.835,190.800 183.419 C 190.800 183.841,190.307 184.000,189.000 184.000 C 187.612 184.000,187.200 183.853,187.200 183.356 C 187.200 182.389,184.781 178.848,183.937 178.580 C 183.532 178.451,183.200 177.993,183.200 177.560 C 183.200 176.711,182.978 176.592,180.700 176.213 C 179.768 176.058,179.200 175.743,179.200 175.382 C 179.200 174.890,177.834 174.800,170.400 174.800 C 163.573 174.800,161.622 174.912,161.700 175.300 C 161.756 175.581,161.319 175.855,160.700 175.927 C 159.914 176.017,159.600 175.874,159.600 175.427 C 159.600 175.025,159.241 174.800,158.600 174.800 C 158.050 174.800,157.600 174.589,157.600 174.331 C 157.600 173.493,156.299 172.400,155.301 172.400 C 154.662 172.400,154.253 172.124,154.116 171.600 C 153.981 171.082,153.570 170.800,152.953 170.800 C 152.394 170.800,152.000 170.564,152.000 170.229 C 152.000 169.278,150.816 168.400,149.534 168.400 C 148.662 168.400,148.267 168.177,148.116 167.600 C 148.001 167.160,147.587 166.800,147.197 166.800 C 146.773 166.800,146.386 166.397,146.236 165.800 C 146.098 165.250,145.718 164.800,145.392 164.800 C 145.067 164.800,144.430 164.430,143.978 163.978 C 143.526 163.526,142.607 163.087,141.935 163.002 C 140.219 162.785,140.320 163.422,140.257 152.441 C 140.206 143.493,140.127 142.379,139.513 141.917 C 138.441 141.110,138.111 138.146,139.059 137.845 C 139.470 137.714,139.986 137.221,140.204 136.749 C 140.422 136.277,140.703 135.960,140.829 136.045 C 141.125 136.246,142.400 134.973,142.400 134.475 C 142.400 134.265,142.783 133.993,143.252 133.871 C 143.821 133.722,144.024 133.441,143.865 133.024 C 143.708 132.615,143.851 132.400,144.281 132.400 C 145.187 132.400,146.400 131.227,146.400 130.351 C 146.400 129.858,146.600 129.702,147.024 129.865 C 147.441 130.024,147.722 129.821,147.871 129.252 C 148.001 128.753,148.414 128.400,148.867 128.400 C 149.362 128.400,149.788 127.981,150.046 127.240 C 150.268 126.602,150.799 125.989,151.225 125.878 C 151.651 125.766,152.000 125.388,152.000 125.037 C 152.000 124.664,152.336 124.400,152.810 124.400 C 153.308 124.400,153.768 124.011,154.004 123.390 C 154.215 122.834,154.661 122.275,154.994 122.147 C 155.327 122.019,155.600 121.681,155.600 121.396 C 155.600 121.111,156.140 120.690,156.799 120.460 C 157.717 120.140,157.975 119.826,157.899 119.121 C 157.824 118.424,157.978 118.230,158.531 118.325 C 158.988 118.403,159.340 118.153,159.469 117.659 C 159.583 117.224,160.097 116.762,160.611 116.633 C 161.126 116.504,161.661 116.039,161.800 115.599 C 161.940 115.160,162.317 114.800,162.640 114.800 C 162.962 114.800,163.321 114.550,163.438 114.244 C 163.667 113.649,166.000 114.235,166.000 114.888 C 166.000 115.059,168.079 115.200,170.620 115.200 C 175.430 115.200,177.600 114.637,177.600 113.390 C 177.600 112.956,178.085 112.800,179.437 112.800 C 180.909 112.800,181.315 112.648,181.474 112.037 C 181.584 111.617,182.017 111.184,182.437 111.074 C 182.940 110.943,183.200 110.522,183.200 109.837 C 183.200 109.067,183.406 108.800,184.000 108.800 C 184.516 108.800,184.800 109.067,184.800 109.551 M138.356 119.300 C 137.886 120.195,137.888 120.196,138.742 119.438 C 139.695 118.591,139.782 118.400,139.214 118.400 C 139.002 118.400,138.616 118.805,138.356 119.300 " stroke="none" fill="#fc944b" fill-rule="evenodd"></path><path id="path1" d="M346.304 194.223 C 344.442 194.674,341.117 196.040,340.460 196.623 C 340.382 196.692,340.768 197.232,341.317 197.824 C 342.345 198.933,344.428 199.316,344.717 198.450 C 344.799 198.203,345.176 198.000,345.553 198.000 C 345.931 198.000,346.462 197.778,346.734 197.506 C 347.410 196.830,356.483 196.848,356.709 197.526 C 356.795 197.786,357.212 198.000,357.633 198.000 C 358.055 198.000,358.400 198.180,358.400 198.400 C 358.400 199.208,360.832 198.804,361.801 197.835 C 362.911 196.726,362.715 196.429,360.169 195.355 C 356.024 193.606,350.658 193.168,346.304 194.223 M337.855 198.600 C 337.982 198.930,337.887 199.200,337.645 199.200 C 337.068 199.200,337.316 200.777,337.955 201.172 C 339.536 202.149,341.164 200.003,339.951 198.541 C 339.312 197.771,337.556 197.820,337.855 198.600 M362.966 198.544 C 362.152 200.664,364.280 202.365,365.472 200.546 C 365.967 199.791,366.036 199.345,365.732 198.860 C 365.182 197.981,363.266 197.763,362.966 198.544 M334.266 202.500 C 329.883 208.346,329.117 217.541,332.456 224.226 C 332.943 225.202,333.501 226.000,333.695 226.000 C 333.888 226.000,333.936 225.820,333.800 225.600 C 333.664 225.380,333.788 225.200,334.077 225.200 C 336.080 225.200,339.330 219.843,337.663 219.288 C 337.408 219.203,337.200 218.803,337.200 218.400 C 337.200 217.997,336.975 217.592,336.700 217.500 C 335.634 217.145,336.089 208.487,337.291 206.253 C 338.441 204.116,338.366 203.447,336.828 202.100 C 335.505 200.943,335.424 200.955,334.266 202.500 M366.038 202.196 C 365.037 203.183,364.732 205.644,365.576 205.925 C 365.809 206.003,366.000 206.412,366.000 206.833 C 366.000 207.255,366.180 207.600,366.400 207.600 C 366.620 207.600,366.800 208.230,366.800 209.000 C 366.800 209.770,366.980 210.400,367.200 210.400 C 367.420 210.400,367.600 211.300,367.600 212.400 C 367.600 213.500,367.420 214.400,367.200 214.400 C 366.980 214.400,366.800 215.019,366.800 215.776 C 366.800 216.533,366.620 217.264,366.400 217.400 C 366.180 217.536,366.000 217.982,366.000 218.390 C 366.000 218.799,365.792 219.203,365.537 219.288 C 364.568 219.611,365.113 221.940,366.473 223.286 C 367.589 224.391,370.735 226.699,369.934 225.825 C 369.788 225.665,370.090 224.914,370.605 224.155 C 373.989 219.167,373.314 208.980,369.203 203.004 C 367.798 200.962,367.395 200.859,366.038 202.196 M337.900 223.877 C 337.089 224.087,336.937 225.819,337.700 226.151 C 337.975 226.270,337.707 226.266,337.104 226.142 C 336.302 225.976,335.938 226.097,335.748 226.591 C 335.542 227.129,335.420 227.158,335.150 226.734 C 334.888 226.319,334.811 226.349,334.806 226.867 C 334.803 227.234,334.679 227.851,334.531 228.237 C 334.320 228.784,334.413 228.881,334.951 228.674 C 335.370 228.513,335.543 228.568,335.392 228.813 C 335.240 229.059,335.634 229.180,336.399 229.121 C 337.420 229.044,337.697 228.817,337.877 227.913 C 338.015 227.227,338.357 226.800,338.770 226.800 C 339.139 226.800,339.656 226.584,339.920 226.320 C 340.482 225.758,340.568 224.000,340.033 224.000 C 339.831 224.000,339.426 223.931,339.133 223.848 C 338.840 223.764,338.285 223.777,337.900 223.877 M363.541 223.868 C 361.965 224.286,362.547 226.800,364.220 226.800 C 365.042 226.800,365.200 226.993,365.200 228.000 C 365.200 229.021,365.353 229.200,366.224 229.200 C 366.895 229.200,367.149 229.359,366.962 229.662 C 366.785 229.948,366.852 230.015,367.138 229.838 C 367.392 229.681,367.600 229.293,367.600 228.976 C 367.600 228.659,367.960 228.400,368.400 228.400 C 368.840 228.400,369.200 228.209,369.200 227.976 C 369.200 227.743,369.065 227.635,368.900 227.734 C 368.568 227.935,367.802 227.226,367.673 226.600 C 367.628 226.380,367.280 226.200,366.901 226.199 C 366.521 226.199,366.148 225.839,366.072 225.399 C 365.940 224.643,364.908 223.546,364.424 223.646 C 364.301 223.672,363.903 223.772,363.541 223.868 M340.100 228.277 C 338.945 229.508,338.000 230.637,338.000 230.787 C 338.000 231.753,343.879 235.200,345.526 235.200 C 345.981 235.200,346.464 235.380,346.600 235.600 C 346.742 235.830,348.863 236.000,351.600 236.000 C 354.337 236.000,356.458 235.830,356.600 235.600 C 356.736 235.380,357.281 235.200,357.811 235.200 C 359.208 235.200,364.653 232.047,365.052 231.008 C 365.423 230.041,361.030 226.000,359.609 226.000 C 358.944 226.000,358.400 226.180,358.400 226.400 C 358.400 226.620,358.076 226.800,357.680 226.800 C 357.284 226.800,356.789 226.960,356.580 227.155 C 355.728 227.950,349.221 228.555,348.567 227.900 C 348.402 227.735,347.929 227.600,347.517 227.600 C 347.105 227.600,346.062 227.240,345.200 226.800 C 342.936 225.645,342.434 225.790,340.100 228.277 M345.600 236.376 C 345.600 237.047,346.309 237.213,346.546 236.598 C 346.685 236.235,346.544 236.000,346.187 236.000 C 345.864 236.000,345.600 236.169,345.600 236.376 M356.400 236.563 C 356.400 236.927,356.680 237.052,357.196 236.917 C 357.633 236.803,357.892 236.550,357.772 236.355 C 357.423 235.789,356.400 235.944,356.400 236.563 M48.092 247.700 L 48.200 255.800 59.900 255.906 L 71.600 256.012 71.600 285.606 L 71.600 315.200 81.600 315.200 L 91.600 315.200 91.600 285.600 L 91.600 256.000 103.400 256.000 L 115.200 256.000 115.200 247.800 L 115.200 239.600 81.592 239.600 L 47.983 239.600 48.092 247.700 M309.600 250.200 L 309.600 258.400 305.800 258.400 L 302.000 258.400 302.000 265.000 L 302.000 271.600 305.800 271.600 L 309.600 271.600 309.600 287.376 C 309.600 297.463,309.744 303.242,310.000 303.400 C 310.220 303.536,310.400 304.141,310.400 304.744 C 310.400 305.940,311.220 307.992,311.700 307.997 C 311.865 307.999,312.000 308.282,312.000 308.626 C 312.000 309.466,316.105 313.600,316.939 313.600 C 317.303 313.600,317.600 313.780,317.600 314.000 C 317.600 314.220,317.960 314.400,318.400 314.400 C 318.840 314.400,319.200 314.580,319.200 314.800 C 319.200 315.020,319.740 315.200,320.400 315.200 C 321.060 315.200,321.600 315.380,321.600 315.600 C 321.600 315.820,322.500 316.000,323.600 316.000 C 324.700 316.000,325.600 316.180,325.600 316.400 C 325.600 316.649,327.933 316.800,331.800 316.800 C 335.667 316.800,338.000 316.649,338.000 316.400 C 338.000 316.174,339.133 316.000,340.600 316.000 C 342.067 316.000,343.200 315.826,343.200 315.600 C 343.200 315.380,343.740 315.200,344.400 315.200 L 345.600 315.200 345.600 308.200 L 345.600 301.200 344.000 301.200 C 343.120 301.200,342.400 301.380,342.400 301.600 C 342.400 301.820,341.871 302.000,341.224 302.000 C 340.577 302.000,339.936 302.180,339.800 302.400 C 339.664 302.620,338.123 302.800,336.376 302.800 C 334.525 302.800,333.200 302.633,333.200 302.400 C 333.200 302.180,332.922 302.000,332.582 302.000 C 331.793 302.000,330.000 300.223,330.000 299.442 C 330.000 299.115,329.820 298.736,329.600 298.600 C 329.346 298.443,329.200 293.463,329.200 284.976 L 329.200 271.600 337.400 271.600 L 345.600 271.600 345.600 265.000 L 345.600 258.400 337.400 258.400 L 329.200 258.400 329.200 250.200 L 329.200 242.000 319.400 242.000 L 309.600 242.000 309.600 250.200 M266.000 257.200 C 266.000 257.420,265.021 257.600,263.824 257.600 C 262.627 257.600,261.536 257.780,261.400 258.000 C 261.264 258.220,260.758 258.408,260.276 258.418 C 259.044 258.442,256.237 259.489,256.071 259.986 C 255.995 260.214,255.588 260.400,255.167 260.400 C 254.745 260.400,254.400 260.580,254.400 260.800 C 254.400 261.020,254.112 261.200,253.760 261.200 C 253.409 261.200,252.644 261.695,252.060 262.300 C 251.477 262.905,250.505 263.655,249.900 263.968 C 249.295 264.280,248.800 264.793,248.800 265.107 C 248.800 265.422,248.260 266.183,247.600 266.800 C 246.862 267.489,246.400 268.321,246.400 268.960 C 246.400 269.532,246.259 270.000,246.087 270.000 C 245.915 270.000,245.542 270.789,245.257 271.754 C 244.502 274.309,245.114 283.200,246.044 283.200 C 246.240 283.200,246.400 283.560,246.400 284.000 C 246.400 284.440,246.550 284.800,246.732 284.800 C 246.915 284.800,247.319 285.295,247.631 285.900 C 248.326 287.252,250.768 289.600,251.478 289.600 C 251.765 289.600,252.000 289.747,252.000 289.926 C 252.000 290.324,254.601 291.600,255.414 291.600 C 255.736 291.600,256.000 291.780,256.000 292.000 C 256.000 292.220,256.540 292.400,257.200 292.400 C 257.860 292.400,258.400 292.580,258.400 292.800 C 258.400 293.020,259.030 293.200,259.800 293.200 C 260.570 293.200,261.200 293.380,261.200 293.600 C 261.200 293.820,262.100 294.000,263.200 294.000 C 264.300 294.000,265.200 294.180,265.200 294.400 C 265.200 294.620,266.100 294.800,267.200 294.800 C 268.300 294.800,269.200 294.980,269.200 295.200 C 269.200 295.420,270.100 295.600,271.200 295.600 C 272.300 295.600,273.200 295.780,273.200 296.000 C 273.200 296.220,273.830 296.400,274.600 296.400 C 275.370 296.400,276.000 296.580,276.000 296.800 C 276.000 297.020,276.283 297.200,276.629 297.200 C 277.632 297.200,278.400 298.240,278.400 299.600 C 278.400 300.850,277.647 302.000,276.829 302.000 C 276.593 302.000,276.400 302.180,276.400 302.400 C 276.400 302.620,275.860 302.800,275.200 302.800 C 274.540 302.800,274.000 302.980,274.000 303.200 C 274.000 303.445,272.075 303.600,269.024 303.600 C 266.137 303.600,263.943 303.432,263.800 303.200 C 263.664 302.980,262.843 302.800,261.976 302.800 C 261.109 302.800,260.400 302.620,260.400 302.400 C 260.400 302.180,259.948 302.000,259.395 302.000 C 258.842 302.000,258.077 301.841,257.695 301.647 C 257.313 301.452,256.460 301.071,255.800 300.800 C 255.140 300.529,254.287 300.148,253.905 299.953 C 253.523 299.759,252.938 299.600,252.605 299.600 C 252.272 299.600,252.000 299.450,252.000 299.268 C 252.000 299.085,251.505 298.680,250.900 298.368 C 250.295 298.055,249.451 297.485,249.025 297.100 C 248.539 296.661,247.605 296.400,246.525 296.400 L 244.800 296.400 244.800 304.600 C 244.800 312.533,244.826 312.800,245.600 312.800 C 246.040 312.800,246.400 312.980,246.400 313.200 C 246.400 313.420,246.839 313.600,247.376 313.600 C 247.913 313.600,248.464 313.780,248.600 314.000 C 248.736 314.220,249.377 314.400,250.024 314.400 C 250.671 314.400,251.200 314.580,251.200 314.800 C 251.200 315.020,251.920 315.200,252.800 315.200 C 253.680 315.200,254.400 315.380,254.400 315.600 C 254.400 315.820,255.289 316.000,256.376 316.000 C 257.463 316.000,258.464 316.180,258.600 316.400 C 258.754 316.649,262.463 316.800,268.400 316.800 C 274.337 316.800,278.046 316.649,278.200 316.400 C 278.336 316.180,279.236 316.000,280.200 316.000 C 281.164 316.000,282.064 315.820,282.200 315.600 C 282.336 315.380,282.876 315.200,283.400 315.200 C 283.924 315.200,284.464 315.020,284.600 314.800 C 284.736 314.580,285.197 314.400,285.624 314.400 C 286.051 314.400,286.400 314.220,286.400 314.000 C 286.400 313.780,286.760 313.600,287.200 313.600 C 287.640 313.600,288.000 313.420,288.000 313.200 C 288.000 312.980,288.360 312.800,288.800 312.800 C 289.240 312.800,289.600 312.620,289.600 312.400 C 289.600 312.180,289.773 312.000,289.983 312.000 C 290.551 312.000,296.400 306.239,296.400 305.680 C 296.400 305.416,296.580 305.200,296.800 305.200 C 297.020 305.200,297.200 304.750,297.200 304.200 C 297.200 303.650,297.380 303.200,297.600 303.200 C 297.820 303.200,298.000 302.390,298.000 301.400 C 298.000 300.410,298.180 299.600,298.400 299.600 C 298.631 299.600,298.800 298.333,298.800 296.600 C 298.800 294.867,298.631 293.600,298.400 293.600 C 298.180 293.600,298.000 292.981,298.000 292.224 C 298.000 291.467,297.820 290.736,297.600 290.600 C 297.380 290.464,297.200 290.043,297.200 289.665 C 297.200 289.286,296.840 288.717,296.400 288.400 C 295.960 288.083,295.600 287.587,295.600 287.298 C 295.600 286.569,292.962 284.000,292.213 284.000 C 291.876 284.000,291.600 283.820,291.600 283.600 C 291.600 283.380,291.330 283.200,291.000 283.200 C 290.670 283.200,290.400 283.020,290.400 282.800 C 290.400 282.580,290.040 282.400,289.600 282.400 C 289.160 282.400,288.800 282.220,288.800 282.000 C 288.800 281.780,288.451 281.600,288.024 281.600 C 287.597 281.600,287.136 281.420,287.000 281.200 C 286.864 280.980,286.133 280.800,285.376 280.800 C 284.619 280.800,284.000 280.620,284.000 280.400 C 284.000 280.180,283.201 280.000,282.224 280.000 C 281.247 280.000,280.336 279.820,280.200 279.600 C 280.064 279.380,279.164 279.200,278.200 279.200 C 277.236 279.200,276.336 279.020,276.200 278.800 C 276.064 278.580,275.164 278.400,274.200 278.400 C 273.236 278.400,272.336 278.220,272.200 278.000 C 272.064 277.780,271.344 277.600,270.600 277.600 C 269.856 277.600,269.136 277.420,269.000 277.200 C 268.864 276.980,268.358 276.794,267.876 276.787 C 267.394 276.779,266.595 276.436,266.100 276.023 C 264.532 274.715,265.146 271.600,266.971 271.600 C 267.317 271.600,267.600 271.420,267.600 271.200 C 267.600 270.980,268.219 270.800,268.976 270.800 C 269.733 270.800,270.464 270.620,270.600 270.400 C 270.736 270.179,272.530 270.000,274.600 270.000 C 276.670 270.000,278.464 270.179,278.600 270.400 C 278.736 270.620,279.456 270.800,280.200 270.800 C 280.944 270.800,281.664 270.980,281.800 271.200 C 281.936 271.420,282.667 271.600,283.424 271.600 C 284.181 271.600,284.800 271.780,284.800 272.000 C 284.800 272.220,285.149 272.400,285.576 272.400 C 286.003 272.400,286.464 272.580,286.600 272.800 C 286.736 273.020,287.287 273.200,287.824 273.200 C 288.361 273.200,288.800 273.340,288.800 273.510 C 288.800 273.681,289.608 274.176,290.596 274.610 C 291.584 275.045,292.394 275.535,292.396 275.700 C 292.398 275.865,293.300 276.000,294.400 276.000 L 296.400 276.000 296.400 268.571 C 296.400 262.601,296.286 261.029,295.818 260.560 C 295.042 259.785,290.639 258.400,288.948 258.400 C 288.207 258.400,287.600 258.220,287.600 258.000 C 287.600 257.780,286.621 257.600,285.424 257.600 C 284.227 257.600,283.136 257.420,283.000 257.200 C 282.848 256.954,279.529 256.800,274.376 256.800 C 269.059 256.800,266.000 256.946,266.000 257.200 M160.200 258.000 C 160.064 258.220,159.027 258.400,157.896 258.400 C 155.753 258.400,151.200 259.548,151.200 260.089 C 151.200 260.260,150.840 260.400,150.400 260.400 C 149.960 260.400,149.600 260.580,149.600 260.800 C 149.600 261.020,149.364 261.200,149.075 261.200 C 148.787 261.200,148.164 261.560,147.692 262.000 C 147.220 262.440,146.673 262.800,146.476 262.800 C 146.279 262.800,145.554 263.340,144.863 264.000 C 143.170 265.618,143.200 265.658,143.200 261.800 L 143.200 258.400 133.600 258.400 L 124.000 258.400 124.000 286.800 L 124.000 315.200 133.600 315.200 L 143.200 315.200 143.200 296.400 L 143.200 277.600 144.400 277.600 C 145.060 277.600,145.600 277.420,145.600 277.200 C 145.600 276.980,146.320 276.800,147.200 276.800 C 148.080 276.800,148.800 276.620,148.800 276.400 C 148.800 276.149,151.400 276.000,155.800 276.000 C 160.200 276.000,162.800 276.149,162.800 276.400 C 162.800 276.620,163.520 276.800,164.400 276.800 L 166.000 276.800 166.000 267.600 C 166.000 258.760,165.970 258.400,165.224 258.400 C 164.797 258.400,164.336 258.220,164.200 258.000 C 164.064 257.780,163.164 257.600,162.200 257.600 C 161.236 257.600,160.336 257.780,160.200 258.000 M174.886 280.900 L 175.004 303.400 175.976 305.883 C 176.510 307.249,177.454 308.959,178.073 309.683 C 178.692 310.408,179.199 311.195,179.199 311.432 C 179.200 311.670,179.695 312.119,180.300 312.430 C 180.905 312.740,181.691 313.311,182.047 313.697 C 182.403 314.084,182.988 314.400,183.347 314.400 C 183.706 314.400,184.000 314.580,184.000 314.800 C 184.000 315.020,184.360 315.200,184.800 315.200 C 185.240 315.200,185.600 315.380,185.600 315.600 C 185.600 315.820,186.140 316.000,186.800 316.000 C 187.460 316.000,188.000 316.180,188.000 316.400 C 188.000 316.651,190.467 316.800,194.600 316.800 C 198.733 316.800,201.200 316.651,201.200 316.400 C 201.200 316.180,201.740 316.000,202.400 316.000 C 203.060 316.000,203.600 315.820,203.600 315.600 C 203.600 315.380,203.962 315.200,204.405 315.200 C 205.296 315.200,206.540 314.569,207.755 313.500 C 208.193 313.115,208.787 312.800,209.075 312.800 C 209.364 312.800,209.600 312.620,209.600 312.400 C 209.600 312.180,209.920 312.000,210.312 312.000 C 210.703 312.000,211.283 311.640,211.600 311.200 C 212.535 309.903,212.800 310.257,212.800 312.800 L 212.800 315.200 222.600 315.200 L 232.400 315.200 232.400 286.800 L 232.400 258.400 222.600 258.400 L 212.800 258.400 212.800 278.166 L 212.800 297.933 211.600 298.464 C 210.940 298.756,210.400 299.131,210.400 299.298 C 210.400 299.464,209.950 299.600,209.400 299.600 C 208.850 299.600,208.400 299.780,208.400 300.000 C 208.400 300.220,207.680 300.400,206.800 300.400 C 205.920 300.400,205.200 300.580,205.200 300.800 C 205.200 301.022,204.133 301.200,202.800 301.200 C 201.467 301.200,200.400 301.022,200.400 300.800 C 200.400 300.580,199.860 300.400,199.200 300.400 C 198.540 300.400,198.000 300.220,198.000 300.000 C 198.000 299.780,197.724 299.600,197.387 299.600 C 197.051 299.600,196.659 299.285,196.517 298.900 C 196.375 298.515,196.155 298.110,196.029 298.000 C 195.447 297.492,194.800 295.916,194.800 295.005 C 194.800 294.452,194.620 294.000,194.400 294.000 C 194.139 294.000,194.000 287.800,194.000 276.200 L 194.000 258.400 184.384 258.400 L 174.769 258.400 174.886 280.900 M223.091 325.489 C 223.801 325.577,225.061 325.579,225.891 325.492 C 226.721 325.405,226.140 325.333,224.600 325.331 C 223.060 325.329,222.381 325.400,223.091 325.489 " stroke="none" fill="#fbfbfb" fill-rule="evenodd"></path><path id="path2" d="M346.400 188.400 C 346.400 188.620,345.877 188.800,345.238 188.800 C 344.116 188.800,340.739 190.286,340.467 190.900 C 340.393 191.065,339.988 191.200,339.567 191.200 C 339.145 191.200,338.800 191.368,338.800 191.573 C 338.800 191.778,338.440 192.060,338.000 192.200 C 336.821 192.574,337.019 193.446,338.654 195.081 C 340.043 196.469,340.164 196.511,341.354 196.017 C 348.672 192.979,354.902 192.846,360.611 195.606 L 362.851 196.688 364.426 195.175 C 365.292 194.343,366.000 193.501,366.000 193.303 C 366.000 192.757,364.074 191.200,363.397 191.200 C 363.069 191.200,362.800 191.020,362.800 190.800 C 362.800 190.580,362.440 190.400,362.000 190.400 C 361.560 190.400,361.200 190.220,361.200 190.000 C 361.200 189.780,360.840 189.600,360.400 189.600 C 359.960 189.600,359.600 189.420,359.600 189.200 C 359.600 188.980,358.981 188.800,358.224 188.800 C 357.467 188.800,356.736 188.620,356.600 188.400 C 356.457 188.168,354.263 188.000,351.376 188.000 C 348.325 188.000,346.400 188.155,346.400 188.400 M328.954 189.340 C 327.702 190.773,326.978 194.800,327.973 194.800 C 328.178 194.800,328.460 195.160,328.600 195.600 C 328.740 196.040,329.112 196.400,329.427 196.400 C 329.742 196.400,330.000 196.580,330.000 196.800 C 330.000 197.020,330.900 197.200,332.000 197.200 C 333.100 197.200,334.000 197.020,334.000 196.800 C 334.000 196.580,334.180 196.400,334.400 196.400 C 334.620 196.400,334.800 196.738,334.800 197.151 C 334.800 198.082,335.444 198.610,337.000 198.957 C 337.769 199.128,338.005 199.094,337.657 198.862 C 337.278 198.609,337.248 198.417,337.557 198.226 C 338.172 197.846,338.110 196.853,337.429 196.171 C 336.724 195.467,335.735 195.431,335.465 196.100 C 335.323 196.452,335.254 196.460,335.232 196.129 C 335.214 195.869,335.470 195.387,335.800 195.057 C 336.468 194.389,336.634 191.200,336.000 191.200 C 335.780 191.200,335.600 190.905,335.600 190.544 C 335.600 188.982,330.133 187.992,328.954 189.340 M368.800 189.200 C 368.800 189.420,368.530 189.600,368.200 189.600 C 367.867 189.600,367.600 189.956,367.600 190.400 C 367.600 190.840,367.420 191.200,367.200 191.200 C 366.980 191.200,366.800 192.010,366.800 193.000 C 366.800 193.990,366.980 194.800,367.200 194.800 C 367.420 194.800,367.600 194.980,367.600 195.200 C 367.600 195.420,367.262 195.600,366.849 195.600 C 365.077 195.600,364.572 198.482,366.301 198.728 C 367.308 198.871,368.400 197.987,368.400 197.029 C 368.400 196.683,368.580 196.400,368.800 196.400 C 369.020 196.400,369.200 196.580,369.200 196.800 C 369.200 197.354,372.023 197.302,373.246 196.726 C 375.677 195.578,375.886 191.208,373.600 189.321 C 372.884 188.730,368.800 188.627,368.800 189.200 M330.900 199.010 C 330.405 199.539,330.000 200.248,330.000 200.586 C 330.000 200.924,329.820 201.200,329.600 201.200 C 329.380 201.200,329.200 201.560,329.200 202.000 C 329.200 202.440,329.059 202.800,328.887 202.800 C 328.715 202.800,328.343 203.655,328.061 204.700 C 327.778 205.745,327.379 206.913,327.173 207.295 C 326.668 208.234,326.691 217.086,327.200 217.400 C 327.420 217.536,327.600 218.098,327.600 218.649 C 327.600 221.115,331.371 227.127,332.618 226.649 C 333.391 226.352,333.353 225.919,332.397 224.083 C 329.028 217.621,330.044 207.487,334.603 202.069 L 335.651 200.824 334.239 199.412 C 332.591 197.765,332.119 197.708,330.900 199.010 M368.935 199.461 L 367.670 200.895 369.015 202.767 C 373.523 209.043,374.063 220.122,370.090 224.863 C 369.491 225.579,369.225 226.027,369.500 225.859 C 369.817 225.665,370.000 225.781,370.000 226.176 C 370.000 226.933,371.062 226.996,371.777 226.280 C 372.448 225.609,373.789 223.089,373.682 222.700 C 373.637 222.535,373.780 222.400,374.000 222.400 C 374.220 222.400,374.400 222.051,374.400 221.624 C 374.400 221.197,374.580 220.736,374.800 220.600 C 375.020 220.464,375.200 219.744,375.200 219.000 C 375.200 218.256,375.380 217.536,375.600 217.400 C 375.831 217.258,376.000 215.129,376.000 212.376 C 376.000 209.459,375.844 207.600,375.600 207.600 C 375.380 207.600,375.200 206.968,375.200 206.195 C 375.200 205.422,375.035 204.477,374.833 204.095 C 374.631 203.713,373.983 202.424,373.394 201.232 C 371.556 197.517,370.885 197.250,368.935 199.461 M329.667 228.193 C 325.958 230.236,327.751 236.400,332.053 236.400 C 335.281 236.400,337.863 231.806,335.796 229.739 C 335.464 229.407,335.294 228.972,335.417 228.772 C 335.541 228.573,335.385 228.507,335.072 228.628 C 334.759 228.748,334.396 228.566,334.264 228.223 C 333.968 227.452,331.046 227.433,329.667 228.193 M369.200 228.000 C 369.200 228.220,368.885 228.401,368.500 228.403 C 368.115 228.405,367.575 228.891,367.300 229.483 C 366.729 230.713,366.622 234.000,367.153 234.000 C 367.348 234.000,367.601 234.360,367.716 234.800 C 367.831 235.240,368.212 235.600,368.563 235.600 C 368.913 235.600,369.200 235.780,369.200 236.000 C 369.200 236.220,369.981 236.400,370.936 236.400 C 374.757 236.400,376.697 231.559,373.969 228.831 C 372.730 227.592,369.200 226.977,369.200 228.000 M337.376 231.319 C 337.089 232.067,338.824 234.000,339.782 234.000 C 340.122 234.000,340.400 234.180,340.400 234.400 C 340.400 234.620,340.760 234.800,341.200 234.800 C 341.640 234.800,342.000 234.936,342.000 235.102 C 342.000 235.723,344.415 236.460,345.597 236.201 C 346.575 235.986,346.755 236.051,346.564 236.550 C 346.360 237.081,346.998 237.159,351.364 237.134 C 355.445 237.110,356.400 236.997,356.400 236.534 C 356.400 236.103,356.730 236.026,357.754 236.218 C 358.570 236.371,359.215 236.299,359.378 236.036 C 359.526 235.796,359.997 235.600,360.424 235.600 C 360.851 235.600,361.200 235.347,361.200 235.037 C 361.200 234.672,361.480 234.548,362.000 234.684 C 362.447 234.801,362.800 234.696,362.800 234.447 C 362.800 234.201,363.025 234.000,363.300 234.000 C 364.254 233.999,366.110 232.063,365.837 231.353 C 365.601 230.738,365.502 230.748,364.690 231.466 C 362.761 233.170,359.022 235.200,357.811 235.200 C 357.281 235.200,356.736 235.380,356.600 235.600 C 356.458 235.830,354.337 236.000,351.600 236.000 C 348.863 236.000,346.742 235.830,346.600 235.600 C 346.464 235.380,345.981 235.200,345.526 235.200 C 344.401 235.200,340.051 232.966,338.712 231.701 C 337.782 230.822,337.588 230.767,337.376 231.319 " stroke="none" fill="#dcdcdc" fill-rule="evenodd"></path><path id="path3" d="M189.600 345.000 L 189.600 366.000 192.600 366.000 L 195.600 366.000 195.600 361.418 C 195.600 357.064,195.650 356.787,196.600 355.836 C 197.150 355.286,197.603 354.963,197.606 355.118 C 197.609 355.273,197.788 355.130,198.003 354.800 C 198.322 354.311,198.783 354.629,200.497 356.523 C 201.654 357.801,203.995 360.283,205.700 362.040 C 207.405 363.797,208.800 365.407,208.800 365.617 C 208.800 366.297,217.187 366.099,217.450 365.413 C 217.671 364.838,211.521 358.400,210.751 358.400 C 210.558 358.400,210.400 358.152,210.400 357.848 C 210.400 357.545,209.521 356.375,208.446 355.248 C 207.372 354.122,206.576 353.200,206.679 353.200 C 206.781 353.200,206.126 352.490,205.223 351.622 L 203.580 350.043 205.290 348.159 C 207.696 345.508,214.000 339.195,214.000 339.436 C 214.000 340.078,215.955 337.538,216.066 336.752 C 216.198 335.815,216.141 335.798,212.502 335.685 L 208.804 335.570 204.502 339.931 C 202.136 342.329,199.300 345.300,198.200 346.533 C 197.100 347.765,196.065 348.780,195.900 348.787 C 195.735 348.794,195.600 343.220,195.600 336.400 L 195.600 324.000 192.600 324.000 L 189.600 324.000 189.600 345.000 M111.575 324.959 C 111.465 325.068,110.572 325.204,109.588 325.261 C 105.334 325.509,98.800 329.463,98.800 331.789 C 98.800 332.125,98.620 332.400,98.400 332.400 C 98.180 332.400,98.000 333.120,98.000 334.000 C 98.000 334.880,97.820 335.600,97.600 335.600 C 97.380 335.600,97.200 336.309,97.200 337.176 C 97.200 338.043,97.380 338.864,97.600 339.000 C 97.820 339.136,98.000 339.777,98.000 340.424 C 98.000 341.071,98.180 341.600,98.400 341.600 C 98.620 341.600,98.800 341.920,98.800 342.312 C 98.800 342.703,99.150 343.276,99.579 343.585 C 100.007 343.893,100.266 344.293,100.155 344.473 C 100.044 344.653,100.194 344.800,100.488 344.800 C 100.783 344.800,101.283 345.160,101.600 345.600 C 101.917 346.040,102.497 346.400,102.888 346.400 C 103.280 346.400,103.600 346.580,103.600 346.800 C 103.600 347.020,103.960 347.200,104.400 347.200 C 104.840 347.200,105.200 347.380,105.200 347.600 C 105.200 347.820,105.920 348.000,106.800 348.000 C 107.680 348.000,108.400 348.180,108.400 348.400 C 108.400 348.620,109.199 348.800,110.176 348.800 C 111.153 348.800,112.064 348.980,112.200 349.200 C 112.336 349.420,113.148 349.600,114.005 349.600 C 117.093 349.600,121.600 352.031,121.600 353.696 C 121.600 354.109,121.780 354.336,122.000 354.200 C 122.227 354.060,122.400 354.396,122.400 354.976 C 122.400 355.539,122.220 356.000,122.000 356.000 C 121.780 356.000,121.600 356.288,121.600 356.640 C 121.600 357.502,119.302 359.600,118.358 359.600 C 117.941 359.600,117.600 359.763,117.600 359.961 C 117.600 360.292,114.522 360.808,112.600 360.800 C 110.460 360.791,107.200 360.286,107.200 359.963 C 107.200 359.763,107.065 359.645,106.900 359.699 C 106.406 359.863,102.000 358.260,102.000 357.917 C 102.000 357.743,101.764 357.600,101.475 357.600 C 101.187 357.600,100.564 357.240,100.092 356.800 C 97.991 354.842,97.200 355.616,97.200 359.629 C 97.200 363.364,97.585 364.400,98.971 364.400 C 99.317 364.400,99.600 364.580,99.600 364.800 C 99.600 365.020,100.140 365.200,100.800 365.200 C 101.460 365.200,102.000 365.380,102.000 365.600 C 102.000 365.820,102.720 366.000,103.600 366.000 C 104.480 366.000,105.200 366.180,105.200 366.400 C 105.200 366.651,107.725 366.800,111.976 366.800 C 116.063 366.800,118.851 366.641,119.000 366.400 C 119.136 366.180,119.580 366.000,119.986 366.000 C 120.875 366.000,124.000 364.385,124.000 363.926 C 124.000 363.747,124.188 363.600,124.418 363.600 C 125.060 363.600,126.800 361.714,126.800 361.018 C 126.800 360.678,126.980 360.400,127.200 360.400 C 127.420 360.400,127.600 360.040,127.600 359.600 C 127.600 359.160,127.780 358.800,128.000 358.800 C 128.220 358.800,128.400 358.170,128.400 357.400 C 128.400 356.630,128.580 356.000,128.800 356.000 C 129.020 356.000,129.200 355.280,129.200 354.400 C 129.200 353.520,129.020 352.800,128.800 352.800 C 128.580 352.800,128.400 352.080,128.400 351.200 C 128.400 350.320,128.220 349.600,128.000 349.600 C 127.780 349.600,127.600 349.312,127.600 348.960 C 127.600 348.245,124.131 344.800,123.412 344.800 C 123.158 344.800,122.205 344.440,121.294 344.000 C 120.384 343.560,119.011 343.200,118.243 343.200 C 117.475 343.200,116.759 343.058,116.652 342.884 C 116.544 342.710,115.859 342.526,115.128 342.477 C 113.939 342.395,111.438 341.977,108.300 341.334 C 107.695 341.211,107.200 340.950,107.200 340.755 C 107.200 340.560,107.007 340.400,106.771 340.400 C 106.073 340.400,105.200 339.318,105.200 338.452 C 105.200 338.009,105.020 337.536,104.800 337.400 C 104.580 337.264,104.400 336.803,104.400 336.376 C 104.400 335.949,104.580 335.600,104.800 335.600 C 105.020 335.600,105.200 335.272,105.200 334.872 C 105.200 334.131,106.882 332.400,107.603 332.400 C 107.821 332.400,108.000 332.220,108.000 332.000 C 108.000 331.780,108.619 331.600,109.376 331.600 C 110.133 331.600,110.864 331.420,111.000 331.200 C 111.136 330.980,112.227 330.800,113.424 330.800 C 114.621 330.800,115.600 330.980,115.600 331.200 C 115.600 331.420,116.410 331.600,117.400 331.600 C 118.390 331.600,119.200 331.780,119.200 332.000 C 119.200 332.220,119.639 332.400,120.176 332.400 C 120.713 332.400,121.264 332.580,121.400 332.800 C 121.536 333.020,121.914 333.200,122.240 333.200 C 122.567 333.200,123.220 333.560,123.692 334.000 C 124.164 334.440,124.787 334.800,125.075 334.800 C 125.364 334.800,125.600 334.980,125.600 335.200 C 125.600 335.420,126.050 335.600,126.600 335.600 L 127.600 335.600 127.600 331.600 C 127.600 328.566,127.473 327.600,127.075 327.600 C 126.786 327.600,125.841 327.263,124.975 326.852 C 123.390 326.100,121.223 325.565,119.000 325.377 C 118.340 325.321,116.444 325.160,114.787 325.018 C 113.129 324.876,111.684 324.849,111.575 324.959 M221.198 325.533 C 220.624 325.726,220.696 331.336,221.280 331.920 C 221.981 332.621,227.108 332.549,227.829 331.829 C 228.433 331.224,228.676 325.617,228.100 325.581 C 226.184 325.463,221.505 325.431,221.198 325.533 M136.667 327.067 C 136.520 327.213,136.400 329.193,136.400 331.467 L 136.400 335.600 134.800 335.600 L 133.200 335.600 133.200 338.400 L 133.200 341.200 134.800 341.200 L 136.400 341.200 136.400 350.800 C 136.400 356.933,136.544 360.400,136.800 360.400 C 137.020 360.400,137.200 360.940,137.200 361.600 C 137.200 362.260,137.380 362.800,137.600 362.800 C 137.820 362.800,138.000 363.076,138.000 363.413 C 138.000 363.749,138.315 364.142,138.700 364.285 C 139.085 364.428,139.691 364.872,140.047 365.272 C 140.403 365.673,140.988 366.000,141.347 366.000 C 141.706 366.000,142.000 366.180,142.000 366.400 C 142.000 366.643,143.800 366.800,146.600 366.800 C 149.400 366.800,151.200 366.643,151.200 366.400 C 151.200 366.180,151.568 366.000,152.018 366.000 C 152.777 366.000,152.827 365.792,152.718 363.100 L 152.600 360.200 151.200 360.320 C 149.426 360.473,148.775 360.604,147.893 360.985 C 146.578 361.554,143.200 359.588,143.200 358.253 C 143.200 357.894,143.020 357.600,142.800 357.600 C 142.546 357.600,142.400 354.604,142.400 349.412 L 142.400 341.224 147.500 341.112 L 152.600 341.000 152.718 338.300 L 152.837 335.600 147.618 335.600 L 142.400 335.600 142.400 331.200 L 142.400 326.800 139.667 326.800 C 138.163 326.800,136.813 326.920,136.667 327.067 M163.000 335.200 C 163.154 335.449,162.395 335.600,160.995 335.600 C 157.977 335.600,157.600 336.041,157.600 339.571 L 157.600 342.400 158.976 342.400 C 159.733 342.400,160.453 342.238,160.575 342.041 C 160.959 341.420,167.195 340.928,171.704 341.163 C 172.721 341.216,174.649 343.221,174.879 344.464 L 175.075 345.529 171.238 345.751 C 166.150 346.045,163.483 346.398,163.020 346.839 C 162.811 347.037,162.226 347.200,161.720 347.200 C 161.214 347.200,160.800 347.380,160.800 347.600 C 160.800 347.820,160.530 348.000,160.200 348.000 C 159.870 348.000,159.600 348.180,159.600 348.400 C 159.600 348.620,159.412 348.800,159.182 348.800 C 158.540 348.800,156.800 350.686,156.800 351.382 C 156.800 351.722,156.620 352.000,156.400 352.000 C 156.180 352.000,156.000 352.360,156.000 352.800 C 156.000 353.240,155.820 353.600,155.600 353.600 C 155.365 353.600,155.200 355.000,155.200 357.000 C 155.200 359.000,155.365 360.400,155.600 360.400 C 155.820 360.400,156.000 360.760,156.000 361.200 C 156.000 361.640,156.180 362.000,156.400 362.000 C 156.620 362.000,156.800 362.276,156.800 362.613 C 156.800 364.171,160.514 366.800,162.715 366.800 C 163.554 366.800,164.456 367.016,164.720 367.280 C 165.093 367.653,165.307 367.653,165.680 367.280 C 165.944 367.016,167.103 366.800,168.256 366.800 C 169.409 366.800,170.464 366.620,170.600 366.400 C 170.736 366.180,171.242 365.996,171.724 365.991 C 172.206 365.986,173.050 365.630,173.600 365.200 C 174.872 364.205,175.200 364.205,175.200 365.200 C 175.200 365.933,175.467 366.000,178.400 366.000 L 181.600 366.000 181.600 354.033 C 181.600 346.481,181.454 342.017,181.203 341.933 C 180.985 341.860,180.767 341.318,180.719 340.729 C 180.670 340.140,180.488 339.745,180.315 339.852 C 180.142 339.960,180.000 339.851,180.000 339.610 C 180.000 338.948,177.312 336.400,176.613 336.400 C 176.276 336.400,176.000 336.220,176.000 336.000 C 176.000 335.780,175.370 335.600,174.600 335.600 C 173.830 335.600,173.200 335.420,173.200 335.200 C 173.200 334.954,171.192 334.800,167.976 334.800 C 164.596 334.800,162.840 334.941,163.000 335.200 M248.000 335.200 C 248.000 335.420,247.460 335.600,246.800 335.600 C 246.140 335.600,245.600 335.780,245.600 336.000 C 245.600 336.220,245.240 336.400,244.800 336.400 C 244.360 336.400,244.000 336.580,244.000 336.800 C 244.000 337.020,243.745 337.200,243.433 337.200 C 243.122 337.200,242.776 337.425,242.665 337.700 C 242.554 337.975,242.449 337.615,242.432 336.900 L 242.400 335.600 239.400 335.600 L 236.400 335.600 236.400 350.800 L 236.400 366.000 239.400 366.000 L 242.400 366.000 242.400 355.171 C 242.400 343.840,242.495 343.200,244.171 343.200 C 244.517 343.200,244.800 343.020,244.800 342.800 C 244.800 342.580,245.145 342.400,245.567 342.400 C 245.988 342.400,246.402 342.195,246.485 341.945 C 246.572 341.684,247.909 341.409,249.626 341.298 C 252.969 341.084,255.102 342.303,255.286 344.533 C 255.332 345.088,255.512 345.455,255.685 345.348 C 255.858 345.240,256.000 349.843,256.000 355.576 L 256.000 366.000 259.000 366.000 L 262.000 366.000 262.000 354.000 C 262.000 346.267,261.858 342.000,261.600 342.000 C 261.380 342.000,261.200 341.460,261.200 340.800 C 261.200 340.140,261.020 339.600,260.800 339.600 C 260.580 339.600,260.400 339.322,260.400 338.982 C 260.400 338.170,258.614 336.400,257.795 336.400 C 257.442 336.400,257.264 336.220,257.400 336.000 C 257.536 335.780,257.287 335.600,256.847 335.600 C 256.407 335.600,255.936 335.420,255.800 335.200 C 255.663 334.979,253.863 334.800,251.776 334.800 C 249.525 334.800,248.000 334.962,248.000 335.200 M278.400 335.200 C 278.400 335.420,278.038 335.600,277.595 335.600 C 276.030 335.600,270.800 340.058,270.800 341.391 C 270.800 341.726,270.620 342.000,270.400 342.000 C 270.180 342.000,270.000 342.360,270.000 342.800 C 270.000 343.240,269.820 343.600,269.600 343.600 C 269.380 343.600,269.200 344.219,269.200 344.976 C 269.200 345.733,269.020 346.464,268.800 346.600 C 268.577 346.738,268.400 348.596,268.400 350.800 C 268.400 353.004,268.577 354.862,268.800 355.000 C 269.020 355.136,269.200 355.867,269.200 356.624 C 269.200 357.381,269.380 358.000,269.600 358.000 C 269.820 358.000,270.000 358.360,270.000 358.800 C 270.000 359.240,270.180 359.600,270.400 359.600 C 270.620 359.600,270.800 359.875,270.800 360.211 C 270.800 361.013,273.884 364.051,275.405 364.747 C 276.062 365.047,276.913 365.452,277.295 365.647 C 278.250 366.133,284.295 366.094,284.600 365.600 C 284.736 365.380,285.377 365.200,286.024 365.200 C 286.671 365.200,287.200 365.020,287.200 364.800 C 287.200 364.580,287.411 364.400,287.669 364.400 C 287.926 364.400,288.466 364.102,288.869 363.738 C 289.567 363.106,289.600 363.159,289.600 364.938 C 289.600 365.962,289.420 366.800,289.200 366.800 C 288.980 366.800,288.800 367.160,288.800 367.600 C 288.800 368.040,288.641 368.400,288.447 368.400 C 288.252 368.400,287.999 368.760,287.884 369.200 C 287.769 369.640,287.388 370.000,287.037 370.000 C 286.687 370.000,286.400 370.180,286.400 370.400 C 286.400 370.620,286.040 370.800,285.600 370.800 C 285.160 370.800,284.800 370.980,284.800 371.200 C 284.800 371.433,283.467 371.600,281.600 371.600 C 279.733 371.600,278.400 371.433,278.400 371.200 C 278.400 370.980,277.691 370.800,276.824 370.800 C 275.957 370.800,275.136 370.620,275.000 370.400 C 274.864 370.180,274.043 370.000,273.176 370.000 L 271.600 370.000 271.600 373.000 C 271.600 375.733,271.671 376.000,272.400 376.000 C 272.840 376.000,273.200 376.180,273.200 376.400 C 273.200 376.622,274.259 376.800,275.576 376.800 C 276.883 376.800,278.064 376.980,278.200 377.200 C 278.336 377.420,279.776 377.600,281.400 377.600 C 283.024 377.600,284.464 377.420,284.600 377.200 C 284.736 376.980,285.546 376.800,286.400 376.800 C 287.254 376.800,288.064 376.620,288.200 376.400 C 288.336 376.180,288.797 376.000,289.224 376.000 C 289.651 376.000,290.000 375.820,290.000 375.600 C 290.000 375.380,290.214 375.200,290.476 375.200 C 291.090 375.200,294.000 371.993,294.000 371.316 C 294.000 371.032,294.180 370.800,294.400 370.800 C 294.620 370.800,294.800 370.271,294.800 369.624 C 294.800 368.977,294.980 368.336,295.200 368.200 C 295.456 368.042,295.600 362.129,295.600 351.776 L 295.600 335.600 292.633 335.600 C 290.651 335.600,289.589 335.766,289.433 336.100 C 289.247 336.500,289.153 336.500,288.967 336.100 C 288.838 335.825,288.388 335.600,287.967 335.600 C 287.545 335.600,287.200 335.420,287.200 335.200 C 287.200 334.958,285.467 334.800,282.800 334.800 C 280.133 334.800,278.400 334.958,278.400 335.200 M221.600 350.800 L 221.600 366.000 224.600 366.000 L 227.600 366.000 227.600 350.800 L 227.600 335.600 224.600 335.600 L 221.600 335.600 221.600 350.800 M287.500 341.419 L 289.600 341.703 289.600 349.179 C 289.600 357.797,289.675 357.616,285.565 358.901 C 281.651 360.125,276.800 359.362,276.800 357.523 C 276.800 357.125,276.620 356.800,276.400 356.800 C 276.180 356.800,276.000 356.440,276.000 356.000 C 276.000 355.560,275.820 355.200,275.600 355.200 C 275.358 355.200,275.200 353.467,275.200 350.800 C 275.200 348.133,275.358 346.400,275.600 346.400 C 275.820 346.400,276.000 346.040,276.000 345.600 C 276.000 345.160,276.180 344.800,276.400 344.800 C 276.620 344.800,276.800 344.522,276.800 344.182 C 276.800 343.048,278.670 341.642,280.667 341.272 C 282.656 340.903,283.873 340.930,287.500 341.419 M175.194 354.300 C 175.187 357.932,175.147 358.013,172.800 359.212 C 167.090 362.131,162.000 360.960,162.000 356.728 C 162.000 355.668,162.180 354.800,162.400 354.800 C 162.620 354.800,162.801 354.575,162.803 354.300 C 162.806 353.784,164.561 352.800,165.480 352.800 C 165.766 352.800,166.000 352.620,166.000 352.400 C 166.000 352.180,166.720 352.000,167.600 352.000 C 168.480 352.000,169.200 351.820,169.200 351.600 C 169.200 351.369,170.467 351.200,172.200 351.200 L 175.200 351.200 175.194 354.300 " stroke="none" fill="#6cfcf4" fill-rule="evenodd"></path></g></svg>